<?xml version="1.0" encoding="utf-8"?>
<svg version="1.1" xmlns="http://www.w3.org/2000/svg" xmlns:xlink="http://www.w3.org/1999/xlink" x="0px" y="0px" viewBox="0 0 209.2 602.3" style="enable-background:new 0 0 209.2 602.3;" xml:space="preserve">
<g>
	<path id="Head back" title="Head back" fill="#CCCCCC" stroke="#1b87f7" d="M74.8,9.8c-8.6,6.9-13.7,16.9-14.3,27.9c-0.1,3.7,0.1,7.4,0.5,11c0.7,6.9,1.3,13.7,2,20.6c-1.1-2.1-3.4-3-5.7-2.2c-2.1,0.9-3.4,3-3.4,5.4c0.1,1.5,0.4,2.9,1.1,4.2l3.7,10c0.7,1.8,1.6,4,3.3,4.9c1.7,0.9,4.6-0.3,4.5-1.8c1.7,8.1,6.2,15.3,12.5,20.5c-0.1-2.2-0.5-4.4-1.5-6.3c-0.9-2.1-2.1-4.1-3.4-6.1c-1.6-2.5-3.3-5-4.9-7.7c0-0.3-0.1-0.4-0.3-0.7c4.1,3.3,8.8,5.7,14,7.3c10.4,3.4,21.5,4.4,32.2,2.5c9-2.2,17.6-5.7,25.5-10.3c-0.8,1.8-1.7,3.6-3,5.1c-3.2,4.6-5.7,9.8-7.4,15.2c5.9-5,9.9-12,12.5-19.1c0.5,0.7,1.1,1.2,1.8,1.6c0.8,0.4,1.6,0.4,2.4,0c0.9-0.5,1.5-1.5,1.8-2.5c0.7-1.7,1.3-3.6,2.2-5.3c1.1-2,2.4-3.8,3.4-5.8c1.2-2,1.6-4.2,1.2-6.6c-0.4-1.8-1.6-3.3-3.3-4.2c-0.4-0.3-0.9-0.4-1.5-0.4c-0.8,0-1.6,0.4-2.2,0.8c-1.2,0.8-2.2,1.6-2.9,1.8c0.5-4.8,1.1-9.4,1.6-14.1c0.8-6.7,1.5-13.6,0.8-20.5c-0.5-6.9-3-13.6-7.3-19.1c-3.4-4-7.4-7.5-11.7-10.3c-1.8-1.2-3.8-2.2-5.8-3c-2.5-0.8-5-1.3-7.5-1.7c-3.3-0.1-7-0.5-10.7-0.7C94.2-0.2,83.5,3.2,74.8,9.8z"/>
	<path id="Neck back" title="Neck back" fill="#CCCCCC" stroke="#1b87f7" d="M71.3,92.1c4,4.1,6.6,9.2,7.8,14.8c1.2,5.5,1.8,11.1,2,16.8c0.1,1.6,0,3.3-0.4,4.8c6.3,0.4,12.7,0.9,18.7,2.6c0.5,0.1,0.9,0.3,1.5,0.4c0.5,0,1.2,0,1.7-0.1c9-1.7,18.2-4.5,27.5-3.4c-0.8-7.5-1.6-15.3,1.2-22.4c0.9-2.1,1.8-4.1,3-6.1c1.8-3.3,3.8-6.6,5.7-9.9c-6.5,4.2-13.6,7.4-21.1,9.4c-4.9,1.1-9.8,1.7-14.8,1.8c-2.1,0.1-4.2,0.1-6.3,0.1c-3.2-0.3-6.2-0.8-9.2-1.6c-3.3-0.7-6.5-1.5-9.5-2.6C76.1,95.6,73.5,94.1,71.3,92.1z"/>
	<path id="Whole back" title="Whole back" fill="#CCCCCC" stroke="#1b87f7" d="M79.8,129.1c-2.2,3.3-5.1,6.2-8.3,8.6c-5.9,4.6-12.3,9-18.9,11.2c-3.7,11.7-7.5,24-6.1,36.3c0.7,5.7,2.4,11.2,2.9,17.3c2,15.4,2.5,30.9,1.7,46.5c-0.1,7.8-0.3,15.7-0.3,23.5c-0.1,8.4-0.3,16.9-2.5,24.9c0,0,112.2,0.3,112.7,0c-0.5-3.2-1.2-6.3-2-9.5c-1.8-7.8-2.2-15.8-2.8-23.9c-0.3-4.9-0.5-9.9,0.8-15c0.5-15.6-5.3-30.9-3.7-46.5c1.6-11.9,4-24,1.7-35.8c-0.3-1.8-0.8-3.6-1.2-5.4c-1.5-5.7-2.8-11.5-4.5-17.4l-8.1-4.2c-2.4-1.2-4.8-2.6-6.9-4.2c-2.1-1.8-4-4-5.3-6.5c-7.8,0-15.4,0.9-23.1,2.6c-2.4,0.5-4,1.2-6.5,0.9c-1.3-0.3-2.6-0.5-3.8-1.1c-5.3-1.2-10.6-2-15.8-2.6C80.1,129,80.1,129,79.8,129.1z"/>
	<path id="Shoulder" title="Shoulder" fill="#CCCCCC" stroke="#1b87f7" d="M51.9,149c-11.1,1.3-20.6,11-24.3,21.5c-3.7,10.6-3.3,22.2-2.9,33.4c0.1,1.7,0.1,3.4,0.1,5.1c0.5,13.3,1.1,26.8,0.1,40.3c0,0.8,0.7,1.2,1.2,1.7c7.7,7.7,22.6,6.7,24.2,3.3l0.3-25.7c0-3.7,0-7.4-0.1-11.1c-0.7-8.8-2-17.7-4.1-26.3l-0.4-5.9c-0.1-2-0.3-4.1-0.4-6.1c-0.3-4.2,0.1-8.4,1.3-12.5C48.2,160.6,50.5,154.7,51.9,149z"/>
	<path id="Elbow" title="Elbow" fill="#CCCCCC" stroke="#1b87f7" d="M25.2,251.5c-0.7,1.8-0.9,3.8-0.8,5.8c0.3,1.2,0.5,2.4,1.1,3.4c1.8,4.5,3.7,9,7.3,12.3c0.4,0.4,0.9,0.8,1.5,1.1c1.2,0.4,2.4,0.5,3.6,0.3c0.7,0,1.5-0.1,2.1-0.4c0.9-0.4,1.8-0.8,2.6-1.5c2.1-1.6,4.1-3.6,5.7-5.7c0.5-0.7,0.9-1.2,1.3-2c0.7-1.6,0.9-3.4,0.9-5.1c0-1.6,0-3.2,0-4.6c-1.2,1.2-2.8,1.8-4.4,1.8c-4.6,0.5-9.4,0.1-13.9-1.5c-0.7-0.3-1.2-0.4-1.8-0.7C28.5,253.8,26.8,252.6,25.2,251.5z"/>
	<path id="Forearm, hand, fingers" title="Forearm, hand, fingers" fill="#CCCCCC" stroke="#1b87f7" d="M23.9,257.4c-4.2,24.3-4.8,49.4-4.9,74c0,5.7-0.4,11.5-1.2,17.2c-0.3,2.1-0.7,4.1-1.2,6.2c-0.4,1.5-1.1,2.8-1.6,4.2c-2.1,5.9-2.5,12.4-3,18.6c-0.3,4.1-0.5,8.3-0.8,12.4c0.8,6.9,4.2,13.2,8.4,18.9c0.5,0.8,1.1,1.3,1.8,1.8s1.7,0.5,2.5,0.1c1.1-0.7,1.2-2.2,1.1-3.4c-0.3-1.3-0.7-2.8-1.1-4.1c1.3,1.8,3,3.4,4.9,4.6c0.8,0.7,1.8,0.9,2.9,0.9c1.1,0,2-0.8,2.1-1.8c-0.1-0.7-0.4-1.3-0.8-1.8l-3.4-4.5c-0.9-1.5-2.2-2.6-3.8-3.4c-0.4-0.1-0.9-0.4-1.2-0.7c-0.3-0.4-0.4-0.8-0.4-1.3c-0.1-1.8-0.1-3.7,0-5.5c1.1,1.3,2.4,2.4,3.8,3.3l3.6,2.4c0.5,0.4,1.2,0.8,1.8,1.1c0.7,0.1,1.3,0.3,2,0.3c1.8,0.1,3.7,0,5.5-0.1c0.3,0,0.4-0.1,0.7-0.3c0.1-0.1,0.1-0.3,0.1-0.5c0-1.3-0.8-2.6-2-3.3c-1.2-0.7-2.5-1.1-3.8-1.2c-0.3,0-0.7,0-0.9-0.3c-0.1-0.1-0.3-0.3-0.4-0.5c-0.4-0.5-0.8-0.8-1.5-0.9c-0.3,0-0.7-0.1-0.9-0.3c-0.3-0.3-0.5-0.5-0.7-0.8c-0.9-1.3-1.3-2.9-1.1-4.4c0.8,0.9,1.6,1.7,2.4,2.5c1.2,1.2,2.6,2.1,4.2,2.6c1.8,0.3,3.8,0.1,5.7-0.5c0.5-0.1,1.1-0.4,1.6-0.8c0.5-0.8,0.4-2-0.4-2.6c-0.8-0.7-1.8-0.9-2.8-1.1c-0.5,0-1.1-0.1-1.5-0.4c-0.4-0.3-0.7-0.7-1.1-0.9c-0.7-0.7-1.6-1.1-2.5-1.2c-0.3,0-0.5-0.1-0.7-0.3c-0.1-0.1-0.1-0.4-0.1-0.7c0-1.6-1.1-2.9-2.4-3.4c-0.7-3.4,0.7-7,1.2-10.4c1.1-6.2,0-12.7,0.1-19c0-3.7,0.5-7.4,0.9-11.4c2.2-9.8,5-19.3,8.6-28.6c2.4-6.2,5-12.3,5.9-18.9c0.3-2.5,0.4-4.9,0.4-7.4c0.1-5.8,0.3-11.6,0.1-17.4c-1.6,3.8-4.4,7-7.8,9c-2.5,1.5-5.5,2.2-8.2,1.1c-0.9-0.5-1.8-1.1-2.8-1.8c-1.2-0.9-2.4-2-3.2-3.2c-0.5-0.9-1.1-1.8-1.3-2.9C25.7,263.5,25.3,260,23.9,257.4z"/>
	<path id="Shoulder" title="Shoulder" fill="#CCCCCC" stroke="#1b87f7" d="M150.6,144.8c3.6,12.3,7.3,24.8,6.5,37.6c-0.1,2.8-0.5,5.4-0.9,8.2c-1.3,8.7-2.8,17.6-2.2,26.4c0.5,11.9,4.5,23.8,3.4,35.8c3.2,1.5,6.9,1.3,10.4,1.3c7.1-0.1,14.9-0.7,20.3-5.9c0.3-9.2-1.2-18.5-2.6-27.7c-0.5-2.8-0.8-5.7-0.8-8.6c0-2.2,0.4-4.4,0.7-6.5c1.7-14.4,0.4-29.6-7-42.2c-4.8-7.4-12-12.9-20.5-15.7l-1.5-0.4C154.2,146.4,152.3,145.6,150.6,144.8z"/>
	<path id="Elbow" title="Elbow" fill="#CCCCCC" stroke="#1b87f7" d="M157.6,254l0.3,6.9c3.3,3.8,7.7,6.9,12.4,8.7c1.2,0.5,2.4,0.8,3.7,0.8c1.2-0.1,2.4-0.4,3.4-1.1c3.8-1.8,7.1-4.9,9.2-8.6c2.1-3.8,2.6-8.2,1.5-12.4c-1.1,2-2.9,3.4-5,4.1c-4.8,1.8-9.9,2-14.9,2.1C164.5,254.9,161,254.6,157.6,254z"/>
	<path id="Forearm, hand, fingers" title="Forearm, hand, fingers" fill="#CCCCCC" stroke="#1b87f7" d="M157.7,262.1c0.5,19.8,8.4,38.4,13.1,57.8c2.8,8.8,5,17.7,6.7,26.7c0.5,1.8,0.7,3.8,0.5,5.8l-3.2,7.4c-0.5,1.2-0.9,2.4-1.3,3.6c-1.1,4.1-0.3,8.4-1.3,12.5c-0.9,3.6-3.2,6.6-4,10.2c-0.3,1.2-0.3,2.4,0.3,3.4c0.5,1.1,1.8,1.6,3,1.2c0.7-0.4,1.2-1.1,1.5-1.8l5.4-10.4c1.6,0.1,2.9,1.2,3.3,2.6c0.4,1.6-0.5,3-2.1,3.4l0,0c-1.2,0.1-2.5-0.5-3.6-0.1c-1.1,0.4-1.7,2-2,3.3l1.2,0.7c-1.3,0.3-3,1.3-2.6,2.5c0.4,0.7,0.9,1.1,1.6,1.2c1.6,0.7,3.2,1.1,4.9,1.2c1.7,0.1,3.4-0.8,4.4-2.2c-0.1,3.6-3,6.6-6.6,6.9c-1.3,0-2.6-0.3-3.8-0.1c-1.3,0-2.5,0.7-3.2,1.8c-0.5,1.7,0.4,3.4,2.1,4c1.6,0.5,3.3,0.5,5,0.1c-0.8,0.5-1.6,1.2-2.1,2.1s-0.5,2,0,2.8c1.1,1.3,3.2,0.8,4.8-0.1c11.7-7,18.7-19.8,18.3-33.5c-0.3-3.4-0.7-6.9-1.5-10.3c-1.2-6.1-2.5-12.1-3.8-18.6c2.1-29.8,0.8-59.7-3.8-89.2c-0.8,1.6-1.7,3.2-2.8,4.8c-2.1,3.4-4.6,6.7-8.3,8.1c-3.7,1.3-7.5,0.3-10.8-1.6C163.7,266.1,160.9,264,157.7,262.1z"/>
	<path id="Buttock" title="Buttock" fill="#CCCCCC" stroke="#1b87f7" d="M47.6,297.5C45,315.2,44.3,333,45.5,351c6.3,4.9,13.2,9.1,20.6,12.3s15.6,4.4,23.5,3.3c2.2-0.3,4.4-0.9,6.2-2.1c1.6-1.5,3.2-2.9,4.6-4.5c1.6-1.5,3.8-2.6,5.9-2c1.1,0.4,2.1,1.1,2.9,2c3,2.5,6.6,4.4,10.4,5.5c5,1.6,10.4,1.2,15.4,0.1c10-2,19.4-6.3,27.5-12.7c2.1-18.2,1.6-36.7-1.6-54.8"/>
	<path id="Thigh back" title="Thigh back" fill="#CCCCCC" stroke="#1b87f7" d="M45.4,352.4c2.4,26.8,8.4,53.1,14.1,79.5c0.4,11.7,0.7,23.5,0.7,34.8c0,0.7,0,1.5,0,2.1c1.7-3.4,4.1-6.5,7-8.8c3-2.5,7.3-3.3,11-2c4,2.2,6.9,6.1,10.3,9.2c1.1,1.1,2.2,1.8,3.6,2.4c1.5,0.7,3,0.5,4.5-0.1c3.6-6.6,3.2-14.7,2.9-22.2c-0.3-8.3-0.3-16.6,0.3-24.8c3.3-20.7,5.4-41.8,2.2-62.7c-3,3-6.7,5.3-10.7,6.7c-2.6,0.8-5.4,1.1-8.2,0.8c-13.5-0.5-26-7.1-36.4-15.6c-0.4-0.4-0.8-0.5-1.2-0.7C45.3,351.2,45.3,351.2,45.4,352.4z"/>
	<path id="Shin back" title="Shin back" fill="#CCCCCC" stroke="#1b87f7" d="M60.4,469.6c-0.4,9,0.9,18,2.4,26.9c1.7,10.7,3.3,21.4,6.6,32.3c2.9,12.8,5.9,25.7,8.7,38.9c0.5,2.6,0.5,5.4,0,8.1c-3.3,0.5-6.5,1.8-9.2,3.8c-0.5,0.4-0.9,0.8-1.3,1.3s-0.5,1.2-0.7,1.8c-0.4,2.5,0.5,5,2.4,6.6l4.9,5.1c1.7,2,3.8,3.7,6.1,5.1c3.2,1.6,6.6,2.2,10,2.1c4.1,0.3,8.3-0.8,11.9-2.8c0.9-0.5,1.5-1.5,1.5-2.4c1.3-3.7,0.8-7.8-0.3-11.5c-0.3-0.8-0.4-1.6-0.4-2.4c0.1-0.7,0.3-1.3,0.4-2c0.5-2.8,0.4-5.7-0.5-8.4c-1.1-3-2-6.1-2.8-9.2c-0.8-2.5-1.2-5.1-1.2-7.7c-0.8-13.1-0.7-26.1,0.4-39.1c2.1-15.8,1.6-31.8-1.6-47.5c-0.8,1.5-2.4,2.4-4.1,2.1c-1.6-0.3-3.2-1.1-4.4-2.2c-2.4-1.8-4.4-4.1-6.6-6.2c-2.1-2.1-4.9-3.7-7.8-4.5c-2.1-0.1-4.2,0.5-5.9,1.8C65.3,462.4,60.6,465.3,60.4,469.6z"/>
	<path id="Thigh back" title="Thigh back" fill="#CCCCCC" stroke="#1b87f7" d="M107.4,359.6c-0.8,6.5-1.2,12.9-1.2,19.4c0.1,8.8,1.6,17.7,2.5,26.4c1.2,10.8,1.6,21.8,1.3,32.7c-0.1,4.8-0.4,9.5-0.3,14.3c0.4,5.7,1.3,11.4,2.9,16.9c1.2,0.8,2.6,0.9,4,0.4c2.8-0.8,4.9-3.2,7.1-5.1c2.2-2,5-3.7,7.9-3.3c1.6,0.4,3,1.1,4.2,2c4.2,2.6,9,5,14.1,4.6c-1.1-17.8,0.3-35.6,4-53.2c4.4-20.2,7.1-40.5,8.3-61.1c-1.5,1.6-3.3,2.9-5.3,3.7c-9.4,4.8-19.1,9.5-29.6,9.8C120,367.5,112.8,364.7,107.4,359.6L107.4,359.6z"/>
	<path id="Shin back" title="Shin back" fill="#CCCCCC" stroke="#1b87f7" d="M112.7,470c-7.5,32.7,5.1,68.9-3.2,101.4c-0.9,3.3-2,6.7-0.7,11c-1.1,4.6-2,9.8,0.3,14c2.1,3.6,5.8,5.8,10,5.9c4.1,0.1,8.1-1.2,11.4-3.6c3.3-2.4,6.2-5.3,8.6-8.4c1.7-2,3.2-4.4,3.8-6.9c0.8-2.6-0.1-5.4-2.1-7.1c-1.8-1.3-4.4-1.3-6.9-1.6c-0.1-7.8,1.3-15.6,2.9-23.2c2.4-12,4.8-24,6.9-36.3c3.7-15.3,5.5-30.9,5.5-46.6c-1.8,0.7-4,0.5-5.8-0.3c-2.8-0.9-5.3-2.2-7.7-3.8c-0.9-0.7-1.8-1.2-2.9-1.7c-2.8-1.1-5.8,0.1-7.9,2.2c-0.5,0.5-1.1,1.1-1.5,1.6c-2.2,2.4-6.9,3.8-8.4,4C113.5,470.7,113.2,469.6,112.7,470z"/>
</g>
</svg>
