<?xml version="1.0" encoding="utf-8"?>
<svg version="1.1" xmlns="http://www.w3.org/2000/svg" xmlns:xlink="http://www.w3.org/1999/xlink" x="0px" y="0px" viewBox="0 0 209.2 602.3" style="enable-background:new 0 0 209.2 602.3;" xml:space="preserve">
<g>
	<path id="Head Front" title="Head Front" fill="#CCCCCC" stroke="#1b87f7" d="M64.4,67.9c-0.5-1.1-1.1-2.2-2.2-2.8c-1.9-1-4.2-0.4-5.5,1.4c-1.1,1.8-1.4,3.9-0.8,6c0.6,2,1.5,3.9,2.5,5.7c0.8,1.5,1.5,3,2.2,4.7c0.5,1.8,1.5,3.4,2.8,4.8c0.5,0.5,1.3,0.8,2,0.8c0.9-0.1,1.5-0.8,1.8-1.5c3,11.4,11.5,20.7,22.6,24.7c3.9,1.3,8,2.2,12.1,2.4c7.1,0.6,14.3,0.1,20.7-3c9.4-4.8,14.8-15,18.9-24.7c-0.9,1.5,1.3,3.2,2.9,2.7c1.6-0.5,2.5-2.3,3.2-3.8c1.4-3.2,2.9-6.3,4.3-9.5c1.4-2.9,2.5-6.8,0-9c-1.4-1-3.3-1.3-4.9-0.6c-1.6,0.6-3,1.5-4.3,2.7c2.3-12.1,4.6-24.5,2.9-36.7c-0.4-2.9-1.1-5.8-2.2-8.6c-3.2-8.9-10.5-15.9-19.2-19.5c-8.8-3.7-18.4-4.7-27.8-3.2C93,1.2,82.6,4.2,78.7,8.2c-1.1,1.1-9.3,4.4-14.1,17c-2.4,6.8-3.3,14.1-2.5,21.3S64.4,60.8,64.4,67.9z"/>
	<path id="Neck front" title="Neck front" fill="#CCCCCC" stroke="#1b87f7" d="M55.9,142.7l100.5-0.1c-7.5-2.7-14.6-6.2-21.4-10.3c-1.9-1-3.6-2.4-4.8-4.2c-1-1.8-1.5-3.8-1.6-5.8c-0.5-5.1-0.4-10.1,0.4-15.2c-5.3,4.7-12.1,7.4-19,7.7c-7,0.4-14-0.8-20.5-3.2c-3.2-0.9-6.1-2.4-8.6-4.4c0,0-0.1,0.1,0,0.3v14.7c0,1.3-0.3,2.5-0.5,3.7c-4.6,5.1-5.3,5.6-8.8,8C66.4,137,61.2,140.1,55.9,142.7z"/>
	<path id="Shoulder" title="Shoulder" fill="#CCCCCC" stroke="#1b87f7" d="M55.7,143.1c-2.5,7.6-4.7,15.3-6.3,23.1c-1,4.9-2.2,10.4-0.5,15.1c0.4,1.3,1.3,2,1.6,3.3c1,7.5,1.5,15.1,1.8,22.6c0,15.1,2.9,29,1.9,44.1c-4.8,1.1-9.8,2.9-14.7,0c-2.8-1.6-7.2-6.2-9.3-8.8c-0.9-0.9-1.5-1.9-2-2.9c-0.1-1.1-0.3-2.3-0.1-3.3c-0.4-7.5-0.4-15.1,0.1-22.7c0.3-3.2,0.4-6.2,0.3-9.4c-0.1-3.4-0.9-6.7-1.3-10.1c-0.5-4.6-0.6-9.3-0.4-14c0.4-7.1,2-14.1,5.1-20.5c3-6.5,8.2-11.8,14.6-15.1C49.3,143,51.4,143.1,55.7,143.1z"/>
	<path id="Forearm, hand, fingers" title="Forearm, hand, fingers" fill="#CCCCCC" stroke="#1b87f7" d="M28,241.2c-4.8,20.2-5.5,41.9-5.5,62.7c0.3,8.9-0.1,17.9-1,26.8c-1,8.2-3,16.4-4.6,24.5c-1.3,6.7-2.2,13.6-1.4,20.4c0.8,6.8,3.3,13.6,8.1,18.4c1,1,2.8,1.9,3.7,0.8c0.4-0.8,0.4-1.6,0.1-2.4l-1.6-5.5c1.3,1.9,2.8,3.6,4.4,4.9c1.8,1.3,4.2,3.4,5.7,1.3c-0.4-2-1.3-3.9-2.7-5.5c0,0-3.2-3-4.6-4.8c-1.9-2.3-3-5.1-1.9-7.6l7.1,4.7c0.8,0.5,1.4,0.9,2.3,1.3c2.2,0.8,4.6,0.8,6.8,0c0.4,0,0.6-0.3,0.9-0.4c0.5-0.6,0.4-1.5-0.3-2l0,0c-0.6-0.4-1.4-0.6-2.3-0.6c-0.8-0.1-1.5-0.1-2.5-0.3c-0.9-1-1.9-1.8-3-2.5l0.6-2.5c0.6,0.9,1.5,1.6,2.5,1.9c0.6,0.1,1.1,0.3,1.8,0.3c0.9,0,1.9,0,2.8-0.1c0.9,0,1.6-0.3,2.3-0.9c0.4-0.6,0.4-1.5-0.1-2.2s-1.3-1-2-1c-0.8-0.1-1.5,0.1-2.5,0c-1-1.6-2.7-3-4.6-3.8c0-1.1-0.5-2.3-1.4-3c-0.3-0.1-0.4-0.4-0.5-0.5c-0.1-0.3-0.3-0.5-0.3-0.9c-0.3-1-0.3-2.2,0-3.2c0.1-0.5,0.4-0.9,0.5-1.4c1.3-2.9,1.8-6,1.8-9.1c0-4.8-0.6-9.6-0.5-14.5c0.1-14.6,5.6-28.5,11.2-42.1c1-5.5,2.2-11,3.2-16.5c1.8-7.9,2.8-15.9,3.4-23.8c-2.8,0.8-5.6,1.3-8.5,1.6c-2.8,0.1-5.6-0.8-7.9-2.4c-0.5-0.3-1.1-0.6-1.6-1C33.3,247,30.8,244.3,28,241.2z"/>
	<path id="Shoulder" title="Shoulder" fill="#CCCCCC" stroke="#1b87f7" d="M155.6,143.8c2.3,9.8,4.1,19.7,5.3,29.6c0.1,1.1,0.1,2.2,0,3.3c-0.3,1.1-0.8,2.2-1.4,3.2c-1,1.6-1.9,3.4-3,5.8c-0.3,2.9-0.9,5.7-1.6,8.5c-0.3,0.8-0.4,1.5-0.5,2.3c-0.1,0.9,0,1.8,0.1,2.7c1.9,16.4,2.2,33,0.6,49.3c4.2,3.8,10.4,4.6,15.9,3.2c5.6-1.6,10.5-4.7,14.5-8.9c0.5-11.4-3.4-22.6-3.7-34c-0.1-6.2,0.8-12.4,1.3-18.5s0.6-11.7-1.1-18.8c-2.3-12.6-10.8-23-22.6-27.8C158,143,156.6,143,155.6,143.8z"/>
	<path id="Forearm, hand, fingers" title="Forearm, hand, fingers" fill="#CCCCCC" stroke="#1b87f7" d="M154.6,249.9c2.3,28.2,14.1,54.7,19.5,82.4c0.5,1.9,0.6,3.9,0.6,6c-0.4,4.4-3.2,8.5-3.7,12.9c-0.3,2.3,0.1,4.6-0.1,7c-0.4,4.1-2.9,7.7-4.2,11.5c-0.8,1.6-0.8,3.6-0.1,5.2c0.9,1.6,3.3,2.3,4.4,0.9c-0.3,0.8,0,1.6,0.8,2c0.8,0.4,1.5,0.5,2.3,0.5c2.7,0.1,5.6,0.1,7.5-1.8c-1,2.5-3,4.4-5.6,5.2c-2.4,0.9-5.1,1.3-7.6,1.9c-0.6,0.1-1.3,0.5-1.6,0.9c-0.5,0.9-0.4,2,0.3,2.8c0.8,0.6,1.6,1.1,2.7,1.3c1.5,0.4,3.2,0.4,4.7,0.1c-1.5-0.1-2.8,0.9-2.9,2.4c-0.1,1.5,0.9,2.8,2.4,2.9c0.3,0,0.5,0,0.9,0c0.6-0.3,1.3-0.5,1.8-0.9c6-4.2,11.9-8.9,15-15.3c2.4-5.3,2.7-11.4,2.4-17.3c-0.1-3.6-0.5-7-0.8-10.3c-2.2-8.5-3.4-17.3-3.9-26c0.1-11.5,0.4-23.1,0.3-35c0.6-11.2-2.7-22.2-3.3-33.4c-0.3-4.1-0.1-8.1-1.1-12.1c-3.7,3.9-8.4,6.8-13.7,8.4c-2.8,0.9-5.8,1.1-8.8,0.9C159.8,252.6,157,251.6,154.6,249.9z"/>
	<path id="Thorax" title="Thorax" fill="#CCCCCC" stroke="#1b87f7" d="M56,143.5c-3.4,10-5.8,20.3-7.1,30.7c-0.4,2-0.3,4.1,0.3,6.1c0.6,1.6,2,3,2,4.6c1,9.6,1.5,19.3,1.5,28.9c0.8,6.7,1.3,13.4,2.3,20.4c16.9-3.9,28.5-19.9,45.5-25.1c4.4-1.8,9.6-1,14,1c4.3,2,8.1,4.9,12.1,7.9c4.1,3.2,8.4,6.1,12.6,9c4.3,2.8,8.8,5.6,13.4,6.7c0.9,0.4,1.8,0.6,2.7,0.8c0.5-12.6-0.1-25.1-1.6-37.5c1.1-4.3,2.2-8.5,2.8-12.7c1.5-2.3,2.8-4.6,3.9-7c0.3-1.4,0.3-2.8,0-4.2c-1.1-9.9-2.8-19.8-5.1-29.6"/>
	<path id="Whole middle abdomen (navel)" title="Whole middle abdomen (navel)" fill="#CCCCCC" stroke="#1b87f7" d="M126.6,313.4l27.1-45.5c0.4-0.5,0.6-1,0.8-1.6c0.1-0.8,0.1-1.4,0-2.2c-0.9-6.8-1-14-0.1-20.8c0.5-2.7,0.6-5.5,0.4-8.2c-8.2-1.9-15.5-6.6-22.5-11l-11.7-8.9c-2.8-2.2-5.7-4.3-9.1-4.8c-4.8-1.9-10.4-1-15.2,1.1c-4.8,2.2-9,5.2-13.6,8.1c-4.3,3-8.6,6.1-13.1,8.9c-3.6,2.3-7.4,4.2-11.3,5.8c-1.3,0.6-2.5,0.9-3.9,0.6c0.6,11.5,0.6,23.1-2,34.6l14.7,23.6c1.3,2,2.4,3.9,3.8,5.8c0.9,1.3,1.8,2.4,2.7,3.7l7.9,10.8"/>
	<path id="Groin" title="Groin" fill="#CCCCCC" stroke="#1b87f7" d="M81.7,314.2c5.8,7,10.9,14.6,15.1,22.6c1,2.2,2.3,4.2,4.1,5.7c1.9,1.6,4.7,1.8,6.7,0.4c1.6-0.4,2.7-1.9,3.6-3.3c5.2-8.4,10.1-16.9,15-25.5"/>
	<path id="Thigh front" title="Thigh front" fill="#CCCCCC" stroke="#1b87f7" d="M52.6,271c-5.7,22.1-6.8,45.2-5.1,67.7c1.8,22.6,6.2,45.2,12.1,67.2c2.7,13.4,2,27.9,8.8,40c0.8,1.9,2.4,3.4,4.3,4.1c-1-3.9-2.2-8.1-1.5-12.1c0.6-3.9,3-8.1,7.1-9.1c0.8-0.1,1.5-0.3,2.3-0.4c1.1-0.1,2.4-0.3,3.7-0.3c3-0.3,5.5,2.3,6.8,4.9c1.8,3.2,2.5,6.6,2.4,10.3c-0.1,3.6-1.8,7-4.4,9.4c2,0.5,4.2,0,5.8-1.4c3.8-2.9,5.1-8.1,5.1-12.9c0-4.8-0.8-9.6-0.4-14.7c0.1-12.3,1.1-24.6,3.3-36.8c1.3-13.6,1-27.4-0.5-41c-0.9-2.2-2.7-3.8-4.1-5.7c-0.9-1.3-1.6-2.5-2.3-3.8c-4.3-7.6-8.6-14.8-14.5-21.4c-0.6-0.8-1.3-1.8-1.9-2.5c-0.5-0.6-1-1.3-1.5-1.9c-0.5-0.8-0.9-1.6-1.4-2.4c-5.6-8.8-11.2-17.4-16.9-26.1C57.3,278.1,54.9,274.5,52.6,271z"/>
	<path id="Knee" title="Knee" fill="#CCCCCC" stroke="#1b87f7" d="M76.2,430.2c-2.9,1.9-4.7,4.9-4.9,8.4c-0.1,2,0,3.9,0.4,5.8c0.3,2.8,1.1,5.5,2.4,8c1.4,2.5,3.8,4.2,6.6,4.4c0.8,0,1.6,0,2.4-0.3c0.8-0.1,1.6-0.4,2.4-0.8c1.1-0.8,2.3-1.8,3-2.9c0.9-1.1,1.6-2.3,2.4-3.4c2.8-5.1,2.7-11.3-0.4-16.1c-0.4-0.6-0.8-1.1-1.3-1.6l-0.6-0.8c-0.1-0.3-0.4-0.5-0.6-0.8c-0.8-0.8-1.8-1.3-2.8-1.4c-1.9-0.3-3.7-0.1-5.6,0.3C78.4,429.2,77.3,429.5,76.2,430.2z"/>
	<path id="Shin front" title="Shin front" fill="#CCCCCC" stroke="#1b87f7" d="M61.2,421.9c0.5,6,0.5,11.8,0.3,17.8c-0.3,17.9,1.5,35.6,5.3,53.1c3,13.2,6.1,26.4,9.1,39.6c1.1,5.5,2.5,10.9,4.2,16.2c0,2.7-0.6,5.2-1.5,7.6c-0.6,1.3-0.8,2.7-0.6,4.1c0.1,0.8,0.8,1.4,1.5,1.4c-4.3,6.7-6.1,14.8-10.4,21.7c-1.4,2.2-3,4.3-3.6,6.8s0.6,5.7,3.3,6.2c1.1,2.2,3.7,2.9,5.8,1.8c0.1,0,0.1-0.1,0.3-0.1c0,0.8,0.4,1.5,1,2c0.6,0.6,1.5,1,2.5,1.1c1,0,2-0.6,2.3-1.6c0.3,1.6,1.8,2.8,3.4,2.5c0,0,0,0,0.1,0c1.8-0.5,2.9-2,2.9-3.8c1.4,2,3.7,3.3,6.1,3.3c2.5,0,4.7-1.6,5.5-4.1c0.3-0.8,0.3-1.5,0.5-2.2c0.5-1,1-1.9,1.8-2.8c1.4-2.4,1.3-5.5,1.1-8.2c-0.1-2.5-0.4-5.2-0.5-7.7c-0.1-0.9-0.1-1.8,0.1-2.7c0.3-0.9,0.6-1.9,1.1-2.8c0.9-2.4,0.9-5.1-0.1-7.5c-0.9-3.6,1.3-7.4,0.6-11c-0.4-2.2-1.5-4.1-2.4-6.1c-1.3-3.6-1.9-7.4-1.9-11.2c-0.4-5.5-0.8-10.9-1.1-16.6c1.4-17.4,2-34.9,1.9-52.4c0-5.8-0.1-11.9-2.4-17.3l-1.5,1.4c-0.4,0.4-0.8,0.6-1.1,1c-1.3,0.8-2.8,1.3-4.3,1.5l-1.3-0.1c-0.1,0-0.3,0-0.4,0c-0.1,0.1-0.3,0.1-0.4,0.4c-0.9,1.1-1.9,2-3,2.7c-1.3,0.6-2.7,1-4.1,1c-1.9,0-3.8-0.6-5.2-1.9c-1.8-1.3-3-3-3.7-5.1c-1.4-0.1-2.8-0.9-3.6-2.2c-0.3-0.5-0.5-1-0.9-1.4c-0.9-1.8-1.8-3.7-2.4-5.6c-0.1-0.3-0.1-0.5-0.3-0.8c-1.8-5.2-3.2-10.7-3.8-16.2"/>
	<path id="Thigh front" title="Thigh front" fill="#CCCCCC" stroke="#1b87f7" d="M107.2,344.7c-2.9,17.1-1,34.8,1.1,52c0.6,5.1,1.3,10.3,1.5,15.5c0.4,10.7-1.4,21.6,1.1,31.7c0.1,2.3,1.6,4.2,3.7,4.8c2.2,1,4.4,2,6.7,1.5c-1.9-3.7-1.6-8.1-1-12.2c0.1-1.4,0.5-2.7,1-3.9c1.1-2,2.7-3.7,4.7-4.7c2.5-1.5,5.6-1.8,8.4-0.8c2.8,1,4.9,3.3,5.8,6.2c1.9,3.2,1.9,7.1,1.6,10.9c0.5-0.6,0.9-1.4,1.3-2c0.4-0.9,0.8-1.8,1-2.8c1.3-3.8,2.2-7.9,2.5-11.9c0.5-1.9,0.8-3.8,1-5.7c0.1-1.3,0.1-2.7,0.3-3.9c0.3-2.3,0.8-4.6,1.3-6.8c1-4.8,2.2-9.8,3.3-15c2.2-11,3.9-22.2,5.5-33.5c0.9-11.3,1.8-22.5,2.5-33.7c0.8-11.5,0.6-23.2-0.3-34.8c-1-9.5-3-19-6-28.2c-10.1,17.4-20.3,34.8-30.6,52.4c-3.7,6.2-7.4,12.4-11,18.6C111.3,340.7,109.8,343.3,107.2,344.7z"/>
	<path id="Knee" title="Knee" fill="#CCCCCC" stroke="#1b87f7" d="M128.2,429.4c-2.3,1.3-4.7,2.5-6,4.8c-0.5,1-0.9,2.2-1.1,3.4c-0.6,2.8-0.8,5.7-0.4,8.6c0.6,3.7,2.8,7.1,5.8,9.4c0.8,0.6,1.6,1,2.5,1.4c2.4,0.6,5.1,0.1,7-1.5c1.9-1.6,3.4-3.7,4.2-6c0.3-0.6,0.5-1.4,0.6-2.2c0.1-0.8,0.3-1.4,0.3-2.2c0.1-3.8,0.1-7.9-1.8-11.2c-1.1-2-2.8-3.6-4.9-4.4C132.6,428.5,130.2,428.4,128.2,429.4z"/>
	<path id="Shin front" title="Shin front" fill="#CCCCCC" stroke="#1b87f7" d="M112.1,448.1c-1,7.9-1.9,15.7-2.5,23.6c0,12.8,0.8,25.5,2,38.2c0.6,14.3,1.1,29.2-3.4,42.7c-0.5,1.1-0.8,2.4-0.8,3.7c0,1.4,0.8,2.7,0.8,3.9c-0.1,1.1-0.3,2.4-0.5,3.6c-0.1,2,0.1,4.1,0.6,6c0.5,2,0.9,4.2,0.8,6.3c0,3.9,0,7.7-0.3,11.7c-0.1,2.3-0.1,4.7,1.4,6.6c-0.1,2-0.3,4.2,1,5.7c0.9,0.9,2,1.4,3.3,1.6c1.1,0.3,2.2,0.4,3.3,0.5c0.8,0.1,1.6,0,2.4-0.4c1-0.6,1.6-1.8,1.8-2.9c0,0.8,0.3,1.4,0.8,1.9c0.3,0.3,0.5,0.5,0.8,0.6s0.5,0.3,0.9,0.4c0.6,0.3,1.3,0.4,1.9,0.5c1.5,0,2.8-0.9,3.3-2.3c0.6,0.8,1.6,1,2.7,0.6c0.9-0.4,1.6-1,2.2-1.9c0.1,0.4,0.3,0.8,0.6,0.9c0.4,0.3,0.8,0.4,1.1,0.4c0.4,0.1,0.8,0.1,1.1,0c0.6-0.1,1.1-0.5,1.5-1c0.8-0.8,1.3-1.8,1.4-2.8c0.4,0.4,1,0.5,1.5,0.3s1-0.6,1.3-1.1c1-1.3,1.4-3,1-4.7c-0.8-2.5-1.8-5.1-3.2-7.4L137,576c-0.5-0.8-0.9-1.6-1.3-2.5c-0.4-1-0.6-2-0.9-2.9c-1-2.7-2.8-5.2-2.8-8.1c0-0.3,0-0.5,0.1-0.6c0.1-0.3,0.4-0.4,0.5-0.6c0.6-0.9,1-2,0.8-3.2c-0.1-1.6-0.5-3.3-0.9-4.8c0.3-9.8,1.5-19.5,3.7-29c1.9-9.1,3.7-18.4,5.6-27.1c1.9-8.8,3.2-18,4.6-27c1-13.3,1.5-26.8,1.5-40.2c-0.8,3.3-1.4,6.6-2.3,10.1l-3.3,7.4l-0.8,1.6c-1.3,2.7-2.5,5.5-4.8,7.2c-1,0.6-2,1.3-3.2,1.5c-0.6,0.3-1.4,0.4-2.2,0.5c-2.5,0.1-4.8-1.5-6.8-3.2c-1.4-0.9-2.3-2.2-2.8-3.8c-1.8,0.1-3.4-0.1-5.1-0.9C115.1,449.7,113.6,448.9,112.1,448.1z"/>
	<path id="Eyes" title="Eye" fill="#CCCCCC" stroke="#1b87f7" d="M92.9,54.6c-2.7-0.6-5.5-0.8-8.1-0.4c-1.1,0.1-2.3,0.5-3.3,1c-1.8,1.3-3,2.8-4.1,4.7c-0.6,1-1.1,2-1.8,3c-0.1,0.3-0.3,0.5-0.3,0.8c0,0.4,0.1,0.8,0.4,1c1,1.4,2.8,1.6,4.4,1.9c5.1,0.6,10.3,0.8,15.3,0.1c1,0,1.9-0.4,2.7-1c0.9-0.9,1.3-2.2,1.1-3.4C99.2,58.6,96.6,55.5,92.9,54.6z"/>
	<path id="Eyes" title="Eye" fill="#CCCCCC" stroke="#1b87f7" d="M117.4,54c-1.8,0.5-3.4,1.5-4.8,2.8c-1.1,1.4-1.8,3-1.9,4.8c-0.3,1.3,0,2.5,0.8,3.7c0.6,0.6,1.5,1,2.4,1.1c0.9,0.3,1.8,0.4,2.7,0.5c5.2,0,10.5,0,15.6-1.4c1-0.3,2-0.6,2.3-1.6c0.1-0.9-0.1-1.6-0.8-2.3c-0.6-1-1.3-1.9-1.9-2.9c-0.4-0.6-0.8-1.3-1.3-1.8c-0.9-1-2-1.9-3.4-2.4c-1.3-0.5-2.5-0.8-3.9-0.9C121.2,53.1,119.2,53.3,117.4,54z"/>
	<path id="Nose" title="Nose" fill="#CCCCCC" stroke="#1b87f7" d="M102.7,58.5c-1.9,5.3-4.1,10.7-6.2,15.9c-0.8,1.8-1.5,3.9-0.4,5.6c0.5,0.8,1.3,1.3,2,1.6c3.8,1.8,8.1,1.8,11.9-0.3c0.8-0.3,1.3-0.8,1.8-1.4c0.4-0.9,0.4-1.9,0.3-2.8c-1-6-3.4-11.4-6.1-16.9c-0.3-0.8-0.8-1.5-1.5-1.9C103.6,57.9,102.4,58.3,102.7,58.5z"/>
	<path id="Mouth" title="Mouth" fill="#CCCCCC" stroke="#1b87f7" d="M115,87.2c-5.7-3-12.6-3.3-18.4-0.4c-1.3,0.5-2.4,1.4-3.2,2.5c-1.1,1.8-1.3,3.9-0.1,5.7c1,1.3,2.2,2.4,3.7,3c0.8,0.5,1.6,1,2.5,1.3c0.6,0.1,1.4,0.3,2,0.3c2.5,0.3,5.2,0.1,7.7-0.3c2.5-0.4,4.9-1.6,7-3.4c0.8-0.6,1.3-1.5,1.6-2.4c0.4-1.4,0.3-2.8-0.5-4.1C116.8,88.7,116,87.8,115,87.2z"/>
</g>
</svg>
