<?xml version="1.0" encoding="utf-8"?>
<svg version="1.1" id="Layer_1" xmlns="http://www.w3.org/2000/svg" xmlns:xlink="http://www.w3.org/1999/xlink" x="0px" y="0px" viewBox="0 0 209.2 602.3" style="enable-background:new 0 0 209.2 602.3;" xml:space="preserve">
<g>
	<path id="Head lateral" title="Head lateral" fill="#CCCCCC" stroke="#1b87f7" d="M76.2,9.7c-5.1,4.2-9.5,9.2-13,15c-3.6,5.5-6,12.1-5.5,18.8c0.1,2.3,0.6,4.8,0.9,7.1c0.4,6.5-1.9,13-6.4,17.9c-1.7,1.7-3.6,3.9-2.7,6.2c0.8,1.8,3.5,2.4,4.1,4.4c0.6,2.2-1.8,4.5-1,6.5c0.5,1.5,3,2.4,2.7,4.1c-0.1,0.6-0.6,1.3-0.8,1.9c-0.4,2.2,2.8,3.1,3.7,5c0.3,0.9,0.4,1.8,0.3,2.8c0,3.3,0.9,7.1,3.6,9.1c3.2,2.4,7.6,2.1,11.6,1.5l6.4-0.9c0.8,0,1.5-0.3,2.3-0.6c0.8-0.5,1.3-1.3,1.8-2.1c1.8-2.7,4-5.1,6.5-7.2c2.7-2.1,5.9-3.7,8-6.4c2.6-3.3,3.2-7.8,6.2-10.7c2.2-3.1,6.4-3.9,9.5-1.7c0.6,0.5,1.3,1,1.7,1.7c0.3,0.4,0.5,0.8,0.9,0.8c0.3,0,0.5-0.1,0.6-0.4c1.4-1.2,3-2.2,4.5-3.1c1.3-0.9,2.8-1.3,4.5-1.4c1.7,0,3.2,1.2,3.5,2.8c0,0.5,0.3,1.4,0.6,1c0.6,0.3,1.3,0.4,1.9,0.3c0.3-0.1,0.4-0.3,0.6-0.4c2.7-1.9,6-2.6,9.2-1.7c0.4,0.1,0.8,0.3,1.2,0.5c0.4,0.4,0.5,1,0.4,1.5c6.8-7.8,12.3-17,14.8-27.1c2.4-10.1,1.4-21.2-3.9-30.3c-4.4-9-11.7-16.2-20.8-20.4c-14.3-5.4-30.2-5.8-44.8-1C84.6,4.7,80.1,6.9,76.2,9.7z"/>
	<path title="Neck lateral" fill="#CCCCCC" d="M89.6,111.3c0.8-1.9,1.8-4.1,3.9-4.9c1.7-0.4,3.5-0.3,5,0.5l7.7,2.6c1.3,0.3,2.4,0.9,3.3,1.9c0.8,1,1,2.4,1,3.7c0.1,3.5-0.3,6.8-1.2,10.1c-0.1,0.6-0.4,1.2-0.8,1.7c-0.5,0.4-1,0.8-1.7,0.9l-23.8,7.2c4.4-3.5,6.9-8.9,8.3-14.4c0.5-1.7,0.6-3.5,0.5-5.3C91.9,113.8,91.1,112.2,89.6,111.3z"/>
	<path title="Abdomen lateral" fill="#CCCCCC" d="M111,113c-0.6-1.8-1.8-3.2-3.5-4.1c-0.6-0.4-1.4-0.6-2.2-0.9l-8.1-2.7c-2.2-0.5-4.5,0.3-5.8,2.1c-1.4,1.5-2.3,3.6-3.6,5.3c-1.3,1.7-3.3,3.1-5.4,2.7c-1-0.3-1.9-1-1.9-1.9c2.2-5,5.5-9.4,9.8-12.8c2.8-2.2,5.9-4.1,8.1-6.8c1.9-2.3,3-5.1,4.4-7.8c1.4-2.7,3.6-5.1,6.2-5.8c2.3-0.8,4.9,0.5,6.4,2.4c0.3,0.5,0.8,0.8,1.3,1c0.5,0,0.9-0.1,1.3-0.4c1.4-0.8,2.6-1.9,3.9-2.8c1.3-0.9,2.7-1.5,4.2-1.7c1.5-0.1,3.1,0.9,3.6,2.3c0.1,0.3,0.3,0.6,0.4,0.9c0.1,0.3,0.4,0.5,0.8,0.5c0.5,0.4,1.2,0.4,1.7,0.1c0.5-0.3,1-0.5,1.5-0.9c1-0.6,2.2-1.2,3.5-1.5c1.2-0.4,2.3-0.4,3.6-0.1c0.6,0,1.2,0.4,1.4,0.9s0.5,1.2,0.5,1.7c0,1.7,0,3.3-0.1,4.9c0,0.3,0,0.4,0.1,0.6c0.1,0.1,0.3,0.3,0.4,0.3c0.9,0.4,1.8,0.4,2.7,0.3c0.4-0.1,0.8-0.1,1-0.1c0.6,0,1.3,0.4,1.8,0.9c0.4,0.5,0.6,1.2,0.8,1.8c0.1,0.6,0.3,1.4,0.3,2.2c0.1,1.3-0.1,2.6-1,3.5c-0.5,0.4-1,0.6-1.7,0.9c-0.3,0.1-0.5,0.1-0.9,0.3c-0.4,0-0.6-0.1-1-0.3c-0.9-0.3-1.5-0.9-2.1-1.7c-0.6,0-1.4,0.3-1.8,0.9c-0.6,0.6-1.3,1.4-1.5,2.3c-0.1,0.5-0.3,1-0.3,1.5c-0.4,1.8-1.2,3.3-2.4,4.6l-3,2.2c1.5,1.7,3,3.5,4.2,5.4c3.1,4.6,5.9,9.4,8.3,14.4c0.8,1.3,1.4,2.7,1.9,4.1c0.6,1.8,0.8,3.9,0.5,5.8c-0.3,4.4-2.3,8.5-4.5,12.3c-0.8,15.9-4,31.6-9.6,46.5c-4.6,24.1-6.7,48.8-6.4,73.3c0.1,6.7,0.5,13.6,3.9,18.6c-7.2-6.7-13.1-14.6-17.3-23.5c-0.6-1.4-1.4-2.8-2.3-4.1c-0.9-1.3-2.3-2.2-3.9-2.3c-2.2-0.1-4.1,1.3-5.8,2.6c-7.2-8.9-13.9-18.1-20-27.7c-7.4-10.8-14.1-22.1-20-33.9c-0.4-8.7-0.9-17.7,1.2-26.2c0.6-2.4,1.3-4.9,2.2-7.3c3.5-10.1,8.2-19.9,14-28.8l16.6-5.1c2.8-0.9,5.7-1.8,8.6-2.3c0.9-0.1,1.8-0.4,2.6-0.9c1-0.9,1.7-2.2,1.8-3.6C111.2,120.4,112.1,116.2,111,113z"/>
	<path title="Abdomen lateral" fill="#CCCCCC" d="M64,200.3c11,21.4,24.1,41.9,39,60.9c-2.3,1.9-4.1,4.2-5.4,6.9c-6.3,10.9-12.5,21.8-18.2,33c-0.4,0.9-1,1.8-1.7,2.6c-0.6,0.6-1.4,1.2-2.2,1.7c-2.7,1.7-5.9,2.3-9.1,2.1c-11-22.3-14.3-47.8-9-72.2C61,223.8,63.2,212.1,64,200.3z"/>
	<path title="Shin lateral" fill="#CCCCCC" d="M103.4,261.8c-4,3.2-6.5,7.8-9,12.5l-9.5,17.9c-0.9,1.7-1.8,3.5-2.4,5.3c-0.6,2.2-1.2,4.4-1.4,6.7L78.2,323c-0.5,3.6-1.2,7.1-1.9,10.7c-4.2,31.2,0.5,63.1,8.5,94c0,8.2-0.1,16.4,2.3,24.3c1.7,5.5,4.5,10.5,6.9,15.7c3.1,6.2,5.5,12.7,7.3,19.4c5,16.7,7.6,34,7.6,51.4c-1.2,8.9-5.8,17-12.8,22.5c-3,2.2-6.2,4.1-9.5,5.8l-21.1,11.2c-1.4,0.8-3,1.7-3.2,3.2c-0.4,2.3,2.4,4,4.2,4.1l-8,3c-0.3,0.1-0.5,0.3-0.8,0.4c-0.5,0.5-0.5,1.4-0.1,1.9c0.5,0.5,1,1,1.7,1.3c-0.4,0.8,0,1.7,0.8,2.1c0.3,0.1,0.5,0.1,0.8,0.1c-0.4,1.3,0.4,2.6,1.7,3c0.3,0.1,0.6,0.1,0.9,0.1c-0.5,0.9-0.3,1.9,0.6,2.4c0.4,0.3,1,0.4,1.4,0.1c-0.1,0.6,0.3,1.4,0.9,1.7s1.3,0.4,2.1,0.4c2.7,0,5.5-0.4,8.1-1.2c1.7,1,3.6,1.7,5.5,1.9c1.3,0,2.7-0.1,4-0.5c12.1-2.8,24.4-4.4,36.9-4.6c2.2,0,4.4-0.1,6.4-0.6c2.1-0.5,4-1.8,5-3.7c1.5-3,0.4-6.4-0.9-10.5c-5.7-17.6-3.3-36.7,0.5-55c1.9-9,4.1-18.1,3.3-28.4c1-15.9-8.5-30.6-11.8-46.2c-3.1-13.5-1.3-27.6,1.7-41.2c3.7-14.3,5.7-29,5.5-43.8c0.9-1.9,2.8-3.1,4.5-4.5c2.1-2.1,3.7-4.6,4.9-7.2c2.8-5.5,5.7-11.2,6.7-17.9c2.3-5.1,2.1-11.2,0.5-16.6c-1.7-5.4-4.1-10.5-6.9-15.3c-2.8-5.1-5.7-10.3-8.9-15.9c-7.6-7.3-13.6-15.9-18-25.6c-1-2.4-2.3-5-4.8-5.9C107.5,257.9,104.8,260.8,103.4,261.8z"/>
	<path id="Ear" title="Ear" fill="#CCCCCC" stroke="#1b87f7" d="M106.1,61c-2.6,4-3,9-2.3,13.7c0.3,1.8,0.8,3.9,2.4,4.8c1.2,0.6,2.6,0.6,3.9,0.1c1.2-0.5,2.3-1.4,3.2-2.3c2.6-2.6,4.6-5.5,6.2-8.9c1.2-2.6,2.1-5.8,0.4-8.1c-1-1.4-2.6-2.3-4.2-2.4c-1.7-0.1-3.3,0-5,0.5c-2.1,0.4-3.9,1.5-5.1,3.3C105.7,61.6,105.6,61.7,106.1,61z"/>
	<path id="Axillary pit" title="Axillary pit" fill="#CCCCCC" stroke="#1b87f7" d="M95.7,172.6c-1,2.6,0.5,5.5,1.9,7.8c1.7,3.1,3.9,5.8,6.4,8.1c1.7,1.3,3.5,2.2,5.4,3.1c3.7,1.7,8,2.8,11.8,1.3c0.9-0.3,1.7-0.9,2.1-1.7c0.3-0.6,0.5-1.3,0.5-2.1c0.3-1.5,0.4-3,0.6-4.5c0.4-3.1,0.8-6.5-1.2-9.1s-5.4-3-8.5-3.7c-3.2-0.9-6.3-2.4-9-4.5c-0.6-0.6-1.4-1-2.3-1c-0.4,0.1-0.8,0.3-1,0.4C99.3,168.3,96.4,170.5,95.7,172.6z"/>
</g>
</svg>
