<?xml version="1.0" encoding="utf-8"?>
<svg version="1.1" xmlns="http://www.w3.org/2000/svg" xmlns:xlink="http://www.w3.org/1999/xlink" x="0px" y="0px" viewBox="0 0 209.2 602.3" style="enable-background:new 0 0 209.2 602.3;" xml:space="preserve">
<g>
	<path title="Abdomen lateral" fill="#CCCCCC" d="M73.3,174.2c0.4,5.8,2,11.5,4.8,16.6c2.8,5.1,6.3,9.8,10.4,14c-5.7,5.5-9,13.1-11.2,20.6c-0.7,2.3-1.2,4.6-1.6,7c-0.3,1.9-0.4,3.7-0.6,5.6c-0.3,3.9-0.6,7.7-1.1,11C70.9,224.4,71.6,199.4,73.3,174.2z"/>
	<path title="Shin lateral" fill="#CCCCCC" d="M93.8,229.5c-4.3,5.8-7.5,12.3-10.4,18.8c-1.6,3.4-2.9,7-3.8,10.6c-0.5,2.7-1,5.5-1.2,8.3c-1.1,14.2-1.8,28.4-2,43c0.4,13,1.9,25.9,4.5,38.7c2.5,10.8,4.8,21.5,6.9,32.7c1.7,7.7,2.8,15.6,3.3,23.4c0.1,2.6,0.3,5.2,0.7,7.7c0.6,2.7,1.5,5.4,2.7,8c1.2,3,2.4,6,3.7,9.3c3.4,13.5,6.2,27.1,8.5,40.4c1.2,6.3,2.3,12.6,3.3,18.9c2.2,13.6,4,27.7-0.4,41.4c-1.6,4.9-6,8.4-10.2,11.5c-6.6,4.6-13.6,9-21.5,11.3c-2.2,0.5-4.4,1.2-6.6,2c-4,1.8-7,5.1-10,8.3c-0.3,0.3-0.6,0.7-0.8,1.2c-0.1,0.4,0,0.8,0.1,1.2c1.3,3.9,5.4,6,9.3,4.7c0.3-0.1,0.6-0.2,1-0.4c1.5-0.8,2.7-2.2,4.4-2.5c1-0.1,2.1,0,3.1,0.3c7.4,1.6,15.2,0.6,22-2.9c-5.4,6-12.3,10.5-20,13c-2.3,0.6-4.6,1.4-6.7,2.5c-2.5,1.4-4.7,3.6-7.4,4.3c-1.4,0.3-2.8,0.3-4.2,0.5c-1.4,0.1-2.8,0.8-3.7,1.9c-0.8,1.2-0.7,3.1,0.6,3.7c-1,1.3-0.2,3.2,0.5,4.6c0.4,0.9,1.1,1.7,1.9,2.4c0.9,0.6,2,0.5,2.8-0.3c0.7,1.7,2.6,2.6,4.4,1.9c0.3-0.1,0.5-0.2,0.8-0.4c0.4,2.6,3.9,3.4,6.4,2.8s5-2.1,7.6-1.9c1.2,0.2,2.3,0.4,3.4,0.8c6.4,1.7,13.1-0.5,19.7-1.8c10.7-2.1,21.7-1.7,32.5-2.9c2.1-0.1,4.1-0.6,5.9-1.6c1.8-1.2,3.1-3.2,3.3-5.4c-0.5-9.1-3.5-17.8-5.1-26.6c-4.8-25.3,0.6-51.4,5.2-77.1c0.7-13.5-0.9-26.9-4.8-39.9c-3-10.1-7.3-19.7-9.5-29.9c-2.9-13.9-1.7-28.3-0.8-43c4.5-21.6,6.2-43.9,5.1-65.9c-0.1-0.9,0-1.8,0.2-2.7c0.4-0.8,0.9-1.5,1.5-2.1c6.3-7.3,9.8-16.5,9.9-26.1c0-9.7-2.8-19.1-8.1-27.3c-4.4-9-10.8-16.9-18.8-22.9c-1.4-1.1-2.8-2.1-4.4-2.8c-4.3-2.3-9.3-2.7-13.8-1.1C100.3,222.9,96.5,225.8,93.8,229.5z"/>
	<path title="head" fill="#CCCCCC" d="M138,74.2c5.1,6,8.2,13.4,11.3,20.6c1.1,2.2,1.7,4.6,2,7c0,2.9-1.1,5.7-3.1,7.8c2.2,14.3,0,29.3-6.6,43.9c-6.9,13.8-12.7,28.1-17.2,42.8c-1,2.9-1.7,5.9-2,9c-0.5,6.8,2.3,13.4,5.8,19.2s7.7,11.4,10.5,17.6c-5.1-7.9-11.8-14.5-19.7-19.5c-2.6-1.6-5.6-2.4-8.6-2.2c-3.8,0-7.6,1.1-10.8,3.3c-8,6.1-12.4,15.7-16.5,24.9c-2.9,0.5-5.8,0.7-8.6,0.9c0.4-8,0.8-16.1,2.8-23.7s5.7-15.3,11.3-20.9c-5-4.7-9-10.4-11.8-16.7c-3.4-7.6-4.7-16.5-2-24.5c-2.2-2.4-3.7-5.3-4.4-8.4c-0.3-1.5-0.5-2.9-0.7-4.4c-0.2-1.4-0.3-2.7-0.5-4.1c-0.3-2.9-0.7-5.9,0.4-8.9c4.1-3.8,8.2-7.6,12.1-11.7c4.5-4.7,8.7-9.6,12.5-14.8c3.8-5,5.8-11.2,9.6-16.2c3.3-4.4,7.9-7.7,12.6-10.8l-0.1-4.3c0-0.2,0-0.5-0.1-0.7c-0.1-0.3-0.2-0.6-0.4-0.8c-1.1-1.7-2-3.5-3.1-5.5c-1.8-0.2-3.6,0.4-5.3-0.2c-0.6-0.2-1.2-0.5-1.7-0.9c-0.9-0.6-1.9-1.3-2.8-2c-0.6-0.6-1.4-0.9-2.2-1.1c-0.4,0-0.9,0-1.3,0.1l-2.1,0.4c-0.5,0-0.9,0.2-1.2,0.6c-0.3,0.4-0.2,1.1-0.2,1.7c0,2.1-1.8,3.6-3.4,4.9c-0.5,0.4-1,0.7-1.6,1s-1.3,0.2-1.9-0.1c-0.4-0.3-0.7-0.7-0.9-1.1c-0.6-1.6,0.1-3.4,0-5.1c-0.2-0.8-0.1-1.7,0.2-2.4l4.2-5.1c0.4-0.5,0.9-1,1.4-1.5c0.7-0.5,1.5-0.9,2.4-1.2c3.2-1.3,6.1-3.1,8.6-5.5c0-1.1-0.2-2.2-0.3-3.3s0.1-2.2,0.7-3.2c0.4-0.5,1-1,1.5-1.3c1-0.6,2.2-1.1,3.2-0.4c0.7,0,1.4,0.4,1.9,1c0.4,0.6,1,1.1,1.7,1.4c0.1-1,0.6-2,1.4-2.7c0.6-0.7,1.2-1.3,1.9-1.8c0.8-0.5,1.7-0.6,2.6-0.4c1.1-0.1,2.1,0.3,2.8,1.2c0.7,0.8,1.2,1.7,2,2.6c2.4-0.5,3.9-3.2,6.2-4c1.2-0.4,2.6-0.3,3.7,0.2c1.5,1.2,2.6,2.8,3.2,4.6c0.3,0.9,0.5,1.9,0.8,2.8c0.3,0.2,0.8,0.2,1.1,0.1c0.4-0.2,0.7-0.3,1-0.6c0.9-0.6,1.9-1,3-1.1c1.1-0.1,2.2,0.3,2.9,1.2c0.2,0.4,0.4,0.7,0.6,1.2c0.4,1,0.7,2,1,3.1c0.1,0.4,0.2,0.8,0.2,1.2c0,0.4-0.1,0.8-0.4,1.1c-0.3,0.2-0.6,0.4-1,0.5c-0.6,0.3-1.3,0.4-2,0.5c-0.5,1.6-1.6,3-2.1,4.6c-0.5,1.6-0.5,3.4-1.2,5.1C140.9,71.1,139.7,72.9,138,74.2z"/>
	<path id="Axillary pit" title="Axillary pit" fill="#CCCCCC" stroke="#1b87f7" d="M121.9,108.3c-2.5,2.6-3.9,6.1-3.7,9.8c0.2,3.6,1.7,7,4.2,9.6c3.8,4,9.3,5.7,14.7,4.5c0.6-0.1,1.2-0.4,1.7-0.8c0.4-0.5,0.7-1.2,0.7-1.8c0.7-3.8,0.8-7.8,0.3-11.7c0-0.5-0.2-0.9-0.4-1.2c-0.4-0.3-0.9-0.5-1.4-0.5c-4-0.5-7.6-2.3-11.2-4.1c-1.5-0.7-3-1.6-3.7-3.1c-0.1-0.4-0.3-0.8-0.6-1.1C122.2,107.6,121.6,107.8,121.9,108.3z"/>
	<path title="Neck lateral" fill="#CCCCCC" d="M105.8,92.4c3-2.9,6.3-5.4,9.9-7.5c0.2-0.1,0.4-0.3,0.6-0.5c0.1-0.2,0.2-0.4,0.2-0.6c0.2-1.1,0.3-2.3,0.5-3.5c0.1-0.5,0-1.1-0.3-1.6c-0.8-1.9-1.8-3.7-3-5.4c-0.1-0.1-0.1-0.2-0.2-0.2c-0.1-0.1-0.3-0.1-0.4-0.1c-2.4,0-4.9,0.1-7-0.9c-1.8-0.9-3.2-2.6-5.1-3c-0.6-0.1-1.2-0.2-1.8-0.2c-0.9-0.1-1.7,0.3-2.4,0.9c-0.4,0.6-0.6,1.4-0.6,2.1c1.4-0.1,2.9,0.6,4.2,0.9c0.4,0.1,0.7,0.6,0.9,0.9c0.3,0.3,0.5,0.7,0.7,1.1c1.4,3,2.5,6.2,3.2,9.5C105.6,87,105.8,89.7,105.8,92.4z"/>
	<path id="Head lateral" title="Head lateral" fill="#CCCCCC" stroke="#1b87f7" d="M92.9,7c-3,2-5.4,4.8-6.9,8.1s-2.6,6.7-3.4,10.2c-0.6,1.8-0.8,3.6-0.8,5.4c0.2,2,1.2,4.2,0,6.1c-1.4,2.3-2.9,4.4-4.5,6.5C76.6,44,75.8,45,76,46.1c0.2,1.1,1.5,1.9,2.7,2.3c0.7,0.2,1.3,0.5,1.9,1c0.9,1,0.3,2.7-0.7,3.5c-0.3,0.2-0.6,0.4-0.8,0.7c-0.6,1.1,1.1,2.2,1,3.5c-0.1,0.4-0.2,0.8-0.4,1.2c-0.4,0.9,0,2,0.9,2.5c0.1,0,0.1,0,0.2,0.1c0.3,0,0.5,0,0.8,0.1c0.2,0.1,0.3,0.2,0.5,0.4c0.9,1.2,0.6,2.9,0.2,4.5c-0.5,2.5,1.1,4.9,3.6,5.4c0.6,0.1,1.2,0.1,1.8,0c-0.2-0.6-0.1-1.2,0.2-1.7c0.4-0.7,0.9-1.3,1.6-1.8c1.1-1,2.1-2.1,2.9-3.3c0.6-0.9,1.4-1.8,2.3-2.5c0.7-0.4,1.3-0.7,2.1-0.9c3.2-1.2,6.1-3,8.6-5.3c0-1.2,0-2.3-0.1-3.5c0-0.5,0-1.1,0.1-1.6c0.2-0.7,0.5-1.4,1-1.9c0.4-0.5,0.8-0.9,1.3-1.2c1.3-0.7,2.9-0.6,4,0.4c0.4,0.5,0.9,1,1.5,1.5c0.1,0.1,0.3,0.1,0.5,0.1c0.2-0.1,0.3-0.3,0.3-0.4c1-2.4,3.3-4.1,5.9-4.3c0.6,0,1.2,0.1,1.7,0.5c1,1,1.8,2.1,2.5,3.3c0.1,0.1,0.1,0.2,0.2,0.2s0.2,0,0.2,0c1.4-0.4,2.6-1.2,3.6-2.3c1-1.1,2.4-1.7,3.8-1.9c1.7,0,3.3,0.8,4.3,2.2s1.7,2.9,1.9,4.6c0.1,0.4,0.2,0.8,0.5,1c0.3,0.1,0.5,0,0.8-0.1c1.2-0.5,2.4-1,3.8-1.5c1.4-2.7,2.6-5.4,3.6-8.2c2.3-6.7,2.5-13.9,0.8-20.7c-1-3.8-2-7.6-4.3-10.8c-1.2-1.5-2.6-2.8-4.2-3.8c-7-4.7-15.2-7.3-23.6-7.4C107.1-0.2,99.2,3.1,92.9,7z"/>
	<path id="Ear" title="Ear" fill="#CCCCCC" stroke="#1b87f7" d="M112.7,29.5c1-2,2.7-3.7,4.8-4.6c0.7-0.3,1.5-0.5,2.2-0.5c1.9,0.2,3.6,1.4,4.3,3.2c0.7,1.8,1,3.7,0.8,5.6c0,1.7-0.3,3.4-0.9,5c-0.5,0.9-1,1.8-1.7,2.5c-1.7,2.2-3.8,4.4-6.5,4.8c-0.9,0.2-1.9,0-2.6-0.7c-0.5-0.7-0.8-1.6-0.7-2.5c0-3.6,1.2-7.2,0.4-10.6C112.6,30.7,112.3,29.7,112.7,29.5z"/>
</g>
</svg>
