<?xml version="1.0" encoding="utf-8"?>
<svg version="1.1" xmlns="http://www.w3.org/2000/svg" xmlns:xlink="http://www.w3.org/1999/xlink" x="0px" y="0px" viewBox="0 0 209.22 602.29" style="enable-background:new 0 0 209.22 602.29;" xml:space="preserve">
<g>
	<path id="Head Front" title="Head Front" fill="#CCCCCC" stroke="#1b87f7" d="M91.9,4.8c-5,3.8-8.3,9.3-9.2,15.4c-0.3,2-0.5,4.2-0.5,6.2c-0.1,4.5,0,9,0,13.4c-0.3-0.9-0.8-1.8-1.6-2.2s-1.9-0.5-2.7,0.2c-0.3,0.4-0.6,0.9-0.7,1.4c-1.1,4.2,0.5,8.7,2.2,12.7c0.8,1.8,1.9,3.8,3.8,4.1c0.4-0.5,0.5-1,0.3-1.6c0.2,1.5,0.6,2.9,1.1,4.4c1.4,3.1,4.2,5.3,7,7.3c1.8,1.3,3.7,2.5,6.2,2.6c6.1,0.3,12.5,0.7,18.5-1.8c2.4-1.2,4.8-2.2,7.2-3.4c1.2-0.7,2.1-1.7,2.6-2.9c0.5-1.2,0.8-2.5,0.7-3.8c1.1,0.2,2.3-0.3,2.9-1.3c2.6-3.4,4.2-7.5,4.7-11.7c0.4-2,0-4.2-1.1-5.9c-1-0.9-2.4-0.9-3.4-0.1c-0.2,0.2-0.5,0.4-0.7,0.3s-0.2-0.5-0.2-1.3c0.8-6.3,0.4-12.7-1-18.8c-0.4-1.9-1-3.8-1.8-5.6c-2.5-5.4-7.2-9.6-13-11.4c-3.5-1-7.4-1.2-11.2-0.7C98.3,1,94.9,2.5,91.9,4.8z"/>
	<path id="Eye" title="Eye" fill="#CCCCCC" stroke="#1b87f7" d="M90.7,26.6c-1.2,1.2-2.2,2.4-3.2,3.8c-0.6,0.8-1.1,1.9-0.6,2.7c0.4,0.6,1.1,1.1,1.8,1.2c4.1,1.1,8.5,0.1,11.7-2.7c0.5-0.4,0.9-0.9,1.1-1.5c0.3-0.6,0.2-1.3-0.2-1.8c-0.2-0.3-0.6-0.5-0.9-0.7c-1.7-1.1-3.5-1.8-5.5-2C93.5,25.4,92,25.8,90.7,26.6z"/>
	<path id="Eye" title="Eye" fill="#CCCCCC" stroke="#1b87f7" d="M113.4,26.7c-0.7,0.5-1.4,0.8-2.1,1.2c-0.7,0.4-1.2,1.2-1.2,1.9c0.1,0.6,0.4,1.2,0.9,1.7c2.3,2.3,5.9,2.9,9.3,3.1c1.5,0.1,3.2,0,4.3-1c0.4-0.3,0.6-0.7,0.7-1.2c0-0.8-0.3-1.6-0.9-2c-1-1.5-2.4-2.8-3.9-3.8C118.2,25.4,115.5,25.4,113.4,26.7z"/>
	<path id="Nose" title="Nose" fill="#CCCCCC" stroke="#1b87f7" d="M104.3,28.2c-1.5,3.8-3,7.6-4.6,11.3c-0.6,1.1-0.8,2.3-0.5,3.5c0.5,1,1.4,1.8,2.6,2c2.5,0.9,5.3,0.9,7.7-0.1c0.5-0.2,1-0.5,1.3-0.9c0.5-0.7,0.8-1.5,0.7-2.2c-0.1-1.1-0.3-2-0.7-3c-0.8-2.6-1.7-5.3-2.6-7.8c-0.3-0.8-0.6-1.6-1-2.3c-0.3-0.7-0.9-1.2-1.7-1.3C104.9,27.3,104.2,28,104.3,28.2z"/>
	<path id="Mouth" title="Mouth" fill="#CCCCCC" stroke="#1b87f7" d="M107.2,47.6c-3.6-0.3-7.2,0.6-10.2,2.4c-0.7,0.4-1.3,0.9-1.8,1.6c-1.1,1.7-0.5,4.1,1,5.5c1.6,1.3,3.5,2.1,5.6,2.3c4.1,0.8,8.4,0.3,12.2-1.4c1.6-0.8,3.1-1.9,3.5-3.7c0.3-1.8-0.5-3.4-1.9-4.5c-1.4-1-3.1-1.7-4.8-1.9C109.6,47.7,108.4,47.6,107.2,47.6z"/>
	<path id="Neck front" title="Neck front" fill="#CCCCCC" stroke="#1b87f7" d="M87.7,63.4c2.3,2.1,4.8,4.4,7.8,5.2c1.2,0.3,2.3,0.5,3.5,0.6c4.2,0.5,8.4,0.4,12.5-0.2c4.2-0.8,8.2-2.6,12-4.1c-0.7,4.3-1,8.7-0.9,13c0.1,4.4,1.6,8.6,4.1,12.2c2,2.4,4.3,4.5,6.8,6.3c0.3,0.3,0.8,0.5,1.3,0.6c0,0-58.5,0.2-58.1,0.2c4.4-2.4,8.6-5.8,10.8-10.1c3-6.1,2-13.4,0.9-20.1C88.3,65.7,88,64.6,87.7,63.4z"/>
	<path id="Thorax" title="Thorax" fill="#CCCCCC" stroke="#1b87f7" d="M70.8,97.6l-10,27.7c-0.3,0.7-0.5,1.4-0.5,2.1c0.1,1.2,0.4,2.3,0.8,3.4c2.4,7.3-2.5,15.2-1.2,23.3c0.4,9.7,1.6,19.4,3.6,28.8c0.2,1.9,0.6,3.6,1.2,5.4c1.1,4.9,2.2,9.6,3.3,14.8c0,0.2,0.1,0.5,0.1,0.7c1.2-1.5,2.3-2.9,3.2-4.6c1.8-2.9,3.7-5.8,5.7-8.9c2.4-3.7,5-7.2,8-10.5c3.8-4.8,9.2-8.2,15.2-9.6c3.3-0.8,6.8-1,10.2-0.6c1.2,0.1,2.5,0.2,3.7,0.4c2.8,0.7,5.5,1.8,8,3.1c3.2,1.8,6.2,4,8.7,6.7c4.2,4.6,7.2,10.1,10.4,15.4c0.7,1.4,1.8,2.6,3,3.7c1.7-6.2,3-12.6,4-18.9c1.2-7.6,1.9-15.2,2.1-22.9c1-3.5,1.2-7.1,0.5-10.6c-0.7-6-4.4-11.5-4.5-17.6c0-1.6,0.2-3,0.5-4.6c0.2-1.9,1-3.6,2.3-5.1c-2.5-6.9-4.7-13.9-6.7-21.4c-14.2-0.4-28.5-0.5-42.7-0.3L70.8,97.6z"/>
	<path id="Shoulder" title="Shoulder" fill="#CCCCCC" stroke="#1b87f7" d="M70.2,98.4l-8.9,24.2c-0.7,1.7-1.1,3.3-1.2,5.1c0.2,1.6,0.5,3.1,0.9,4.6c0.9,4.4-0.1,8.9-1.2,13.5c-0.3,9.7,0.4,19.4,2.1,28.9c-0.4,5.9-2.8,11.6-5.7,17.3c-1.2,1.5-2.8,2.7-4.6,3.5c-1.9,0.8-4,1-6,0.5c-2.5-0.7-4.2-2.8-5.4-5.1c-1.4-3-2.4-6.2-2.8-9.6c1.2-5.1,2.5-10.1,3.7-15.4c1.3-4.2,2.2-8.5,2.4-12.9c0.4-7.4-1.7-14.6-2-22.8c-0.2-4.1-0.2-8.3,0.3-12.4c0.5-4.2,2-8.2,4.5-11.7c3.3-3.3,7.4-6.2,12.2-6.7c0.4,0,0.7-0.1,1.1-0.2c0.5-0.1,1-0.3,1.5-0.6c3-1.2,6.3-1.1,9.5-0.9C70.3,98.3,70.1,98.7,70.2,98.4z"/>
	<path id="Forearm, hand, fingers" title="Forearm, hand, fingers" fill="#CCCCCC" stroke="#1b87f7" d="M37.1,183.8c-0.9,2.2-2,4.4-3,6.6C26,208.8,28.9,230,23,249.7c-2.3,6.8-3.6,13.8-4,21c-0.2,4.4-0.1,8.8-0.7,13.1c-0.4,1.8-0.5,3.5-0.6,5.3c0.1,1.6,0.5,3.2,1,4.7c0.7,2.7,1.7,5.3,3,7.8c1.4,2.7,3.7,4.9,6.4,6.3c4.3,3.6,9.2,6.6,14.4,8.9c1.1-0.7,1.7-1.9,1.5-3.2c-0.4-1.9-2.3-2.8-3.8-4.1c-1.9-1.7-3.1-4.1-5.2-5.7c-0.6-0.4-1.2-0.8-1.8-1.3c-1.6-1.4-2.2-3.6-2.6-5.7c-0.1-0.6-0.2-1.1-0.2-1.7c0.1-0.5,0.2-1,0.4-1.5c0.6-1.9,0.8-4,0.5-6c2.4,2.1,2.9,5.8,3.4,8.9c0.5,3.1,1.5,6.7,4.4,8.3c0.3,0.2,0.7,0.3,1,0.1c0.3-0.2,0.4-0.4,0.5-0.7c0.9-2.7-0.1-5.7-0.9-8.4c-0.8-2.5-1.3-5.1-1.7-7.7c-0.4-2.7-0.5-5.6-2.2-8.3c-2.3-3.5-4-7.4-4.7-11.6c-0.7-4.5,0.1-9,2.3-13c5.5-10.3,10.9-20.8,16.4-32c5.1-9.6,7.4-20.4,6.8-31.1c-1.3,2-3.3,3.5-5.6,4.3c-2.3,0.8-4.9,0.6-7.1-0.6c-2.2-1.3-3.9-3.2-4.9-5.6C38.2,188.2,37.8,185.7,37.1,183.8z"/>
	<path id="Shoulder" title="Shoulder" fill="#CCCCCC" stroke="#1b87f7" d="M143.1,98.5c2.1,7.1,4.3,14.2,6.8,21.1c-2.9,2.6-3.4,6.9-2.8,10.8s2.2,7.4,3.2,11.1c1.3,5.2,1.4,10.6,0.5,15.9c-0.4,5.1-0.7,10.1-1.3,15.9l4.4,13.4c0.6,2.1,1.5,4.3,2.8,6.1c1.3,1.9,3.5,3,5.9,3.1c1.5-0.2,3-0.8,4.1-1.9c3.3-4.6,5.6-9.7,6.8-15.3c-1.2-10.5-5.5-20.7-4.9-31.3c0.3-5.7,2-11.2,2.1-17.6c-0.3-4.4-0.6-8.9-1.4-13.3c-0.4-2.9-1.3-5.8-2.5-8.4c-1.5-3-3.9-5.5-7-7c-1.9-1-4.1-1.6-6.3-1.7c-0.6,0-1.2,0-1.8-0.1c-0.6-0.2-1.2-0.4-1.8-0.7C147.8,98.1,145.4,97.9,143.1,98.5z"/>
	<path id="Forearm, hand, fingers" title="Forearm, hand, fingers" fill="#CCCCCC" stroke="#1b87f7" d="M155.3,192.3c0,8.3,1.3,16.6,3.8,24.5c4.6,14.4,13.4,27.5,17.4,43.1c1.7,3,1.4,6.8,0.4,10s-2.8,6.3-4.3,9.5c-3.3,7.3-4.6,15.2-5.9,23c-0.2,0.7-0.1,1.5,0.2,2.1c0.7,0.9,2,1.1,2.9,0.4c0.9-0.7,1.5-1.6,1.7-2.6c0.8-2.4,0.9-5.1,1.5-7.6s1.8-5.1,4.1-6.4c-0.9,2.1-0.6,4.6,0.8,6.5c-0.8,2.5-1.1,5.3-0.9,7.9l-8.7,7.8c-0.8,0.7-1.5,1.4-2.2,2.1c-0.5,0.6-0.9,1.3-1.2,2c-0.4,1-0.4,2.3,0.6,2.6c0.6,0.1,1.2-0.1,1.7-0.4l13.6-7.9c1.3-0.7,2.4-1.5,3.4-2.5c0.8-1,1.5-2.1,1.9-3.3c1.5-3.3,3-6.6,4.5-9.8c0.3-0.7,0.6-1.4,0.7-2c0-0.8,0-1.6-0.2-2.3c-0.8-3.9-1.3-7.9-1.5-11.9c-0.2-6.2,0.4-12.7-2.4-18.9c-2.3-13.2-2.8-26.5-4.2-39.8s-3.8-26.6-9.3-38c-0.7,3.8-2,7.5-4,10.8c-0.9,1.7-2.1,3-3.5,4.2c-1.5,1.2-3.4,1.6-5.3,1.2c-1.7-0.6-3.2-1.7-4.3-3.1C156.3,192.9,155.8,192.6,155.3,192.3z"/>
	<path id="Right upper abdomen" title="Right upper abdomen" fill="#CCCCCC" stroke="#1b87f7" d="M93.2,174.1l-0.1,39.8c0,0-26.9,0-26.8-0.1c1.1-2.5,1.9-5.3,2.2-8c0.1-0.5,0.1-1,0-1.5c3.3-5,6.7-9.9,10-15C82.6,183.3,86.9,177,93.2,174.1z"/>
	<path id="Middle upper abdomen" title="Middle upper abdomen" fill="#CCCCCC" stroke="#1b87f7" d="M93.6,173.7v40.3l0.1-0.2l27.7,0.1c0,0-0.3-40.1-0.3-40.3c-7.4-3.9-16.3-4.4-24.1-1.4C95.8,172.7,94.6,173.2,93.6,173.7z"/>
	<path id="Right lower abdomen" title="Right lower abdomen" fill="#CCCCCC" stroke="#1b87f7" d="M62.8,239.3l25.5,36.1l4.9,0.1v-36"/>
	<path id="Middle lower abdomen" title="Middle lower abdomen" fill="#CCCCCC" stroke="#1b87f7" d="M93.4,239.3l0.2,36.1l27.8,0.1l-0.1-36.2"/>
	<path id="Left lower abdomen" title="Left lower abdomen" fill="#CCCCCC" stroke="#1b87f7" d="M121.8,239.4v36h3.5l25-36"/>
	<path id="Whole middle abdomen (navel)" title="Whole middle abdomen (navel)" fill="#CCCCCC" stroke="#1b87f7" d="M65.9,214.3c-3.6,5-6.3,10.5-8,16.4c-0.2,0.4-0.3,0.8-0.5,1.2l5.3,7.1l87.5,0.2c0,0,4.1-5.8,4.5-6c-1.5-3.4-2.3-7.1-4-10.4c-0.9-1.7-1.9-3.3-3-4.9l-2.4-3.5H65.9z"/>
	<path id="Groin" title="Groin" fill="#CCCCCC" stroke="#1b87f7" d="M88.9,275.9c2.9,5,6.3,9.6,10.2,14c1.2,1.5,2.7,2.8,4.4,3.8c2,1.1,4.4,1.3,6.6,0.6c3-1.6,5.1-4.3,7-6.9c2.8-3.9,5.5-7.8,8.2-11.8L88.9,275.9z"/>
	<path id="Thigh front" title="Thigh front" fill="#CCCCCC" stroke="#1b87f7" d="M57.4,232.1c0,0,36.8,52.5,37.1,52.9c1.6,2.1,3.3,4.2,5.1,6.1c1.5,1.9,3.3,3.4,5.4,4.8c-3.5,6.3-3.6,13.8-4.2,21c-0.9,11.9-3.2,23.6-5.3,36c-0.5,25.4-1.2,51.4-9.4,74.8c-0.7-1.2-1.1-2.5-1.2-4c-0.3-2.9-0.6-5.9-0.9-8.9c-0.4-3.9-0.8-7.9-2.7-11.3c-1.9-3.4-5.6-6.2-10-6.1c-1.9,0-3.6,0.7-5,1.9c-1.4,1.2-2.5,2.6-3.3,4.3c-1.5,2.6-2.5,5.6-3.7,8.2c-0.9-14.5-2-28.9-3.5-43.1c-5.6-22.8-8.5-46.2-8.8-69.7c0.1-20.2,2.6-40.3,7.4-59.8C55,236.5,55.7,234,57.4,232.1z"/>
	<path id="Knee" title="Knee" fill="#CCCCCC" stroke="#1b87f7" d="M67.6,399.2c-3.2,2-5.4,5.3-6.2,8.9s-0.5,7.4,0.7,10.9c1.1,3.3,3.3,6.8,6.8,7.7c2.8,0.7,5.9-0.5,8-2.4c2-2,3.6-4.5,4.7-7.1c0.7-1.5,1.2-2.9,1.5-4.5c0.2-1.8-0.1-3.5-0.6-5.2c-1-3.3-2.9-6.5-6-8.3C73.6,397.6,70.3,397.6,67.6,399.2z"/>
	<path id="Shin front" title="Shin front" fill="#CCCCCC" stroke="#1b87f7" d="M59.8,414.2c0.9,11.4-4.5,22.3-6.1,33.6c-1.1,8.1-0.3,16.3,0.4,24.4c2.1,21,4.1,41.9,3.9,64.2c-0.7,6.1-1.3,12.4-2,18.5c-0.1,1-0.2,1.9-0.5,2.8c-0.3,0.9-0.6,1.7-1,2.4c-1.7,4.2-3.8,8.2-6.4,11.9c-1.4,1.7-2.7,3.5-3.7,5.5c-1.1,2.4-1.1,5.3-1.2,7.9c0,1.7,0,3.3-0.1,5c0,0.8,0,1.8,0.8,2.1c1,0.6,2.2-0.5,2.9-1.4c-0.3,1.2,0.4,2.3,1.7,2.6c0.7,0.2,1.4,0,1.9-0.4c1,1.8,4.1,1.7,4.9,0.2c0.8,1.9,3.1,2.8,5.1,2c1.4-0.6,2.3-1.9,2.4-3.4c0.5,2.1,2.5,3.6,4.7,3.4c2.2-0.2,4-1.8,4.6-3.8c0.2-1,0.4-1.9,0.8-2.7c0.4-0.5,0.9-1,1.4-1.5c1.5-1.7,2.2-3.8,2.1-6c-0.2-1.9-0.5-4-0.9-5.9c3-1.4,4-5.2,3.7-8.4c-0.3-3.2-1.4-6.4-0.8-9.6c0.4-1.7,0.9-3.3,1.5-4.9c0.7-2.7,0.9-5.6,0.5-8.3c-3.4-18.1-3.3-36.7,0.2-54.8c5.2-15.5,7-31.9,5.3-48c-0.4-4.4-1.2-8.8-0.4-13.6c-1.6-4.8-2-9.7-2.6-14.2c-0.6,5-3.3,9.5-7.4,12.3c-0.4,0.3-0.8,0.5-1.2,0.7c-2.1,1-4.5,0.9-6.5-0.2c-2.3-0.8-3.8-2.9-4.9-5.2c-1.5-3.2-2.5-6.6-2.9-10.1C59.9,412.3,59.8,413.2,59.8,414.2z"/>
	<path id="Thigh front" title="Thigh front" fill="#CCCCCC" stroke="#1b87f7" d="M105.9,295.9c2,4.1,2.5,8.8,2.9,13.4c1.3,13.8,2.7,27.6,4.9,41.9c1.3,17.3,2.5,34.7,3.8,51.9c0.5,7.3,1.2,14.9,5.3,21.1c2.1-3.7,2.9-7.9,4.2-12c1.3-4.1,2.9-8.2,6.3-11c2.6-2.2,6.4-2.4,9.2-0.4c2.2,1.7,3.1,4.5,3.8,7.1c0.5,1.9,0.8,3.9,1.1,5.8c0.4,3,0.6,6.1,2.2,8.7c-0.2-9.4-0.4-18.7,1.8-28c2.2-11.9,4.4-23.7,6.6-36c3.4-18,5.7-36.2,6.8-54.5c0.9-10.3,0.7-20.8-0.8-31c-2-7.1-3.5-14.4-4.3-21.7c-0.7-6.2-1.1-12.9-5-17.8c0,0-38.2,55.5-38.9,56.1c-1.7,2.3-3.6,4.9-6.5,5.6c-1.2,0.2-2.4,0.3-3.6,0.1C105.9,295.5,106.1,295.9,105.9,295.9z"/>
	<path id="Knee" title="Knee" fill="#CCCCCC" stroke="#1b87f7" d="M132.5,402.6c-3.9,5-5.3,11.4-3.6,17.4c0.3,1.4,1,2.7,2,3.8c1.6,1.5,3.7,2.2,5.8,2.3c1.3,0.2,2.7,0.2,4-0.1c2.5-0.9,4.4-2.8,5.2-5.3c0.7-2.4,0.9-5,0.5-7.5c-0.2-1.8-0.5-3.5-0.9-5.3c-0.4-1.9-1.1-3.8-2.3-5.5c-1.1-1.7-3-2.8-5.1-2.9C135.9,399.8,133.9,400.9,132.5,402.6z"/>
	<path id="Shin front" title="Shin front" fill="#CCCCCC" stroke="#1b87f7" d="M127,413.7c-0.8,3.8-1.6,7.6-3.7,10.9c-0.5,0.6-0.8,1.3-1.1,2c-0.2,0.7-0.2,1.3-0.2,1.9c0,11.8-3.3,23.5-2.4,35.3c0.8,10.9,5.1,21.3,7.9,32.4l1.4,22.1c0.6,8.5,1.1,17.1,0,25.5c-0.4,3.5-1.2,7-1.1,10.5c0,2.3,0.4,4.7,0.5,7.8c0,3.6-2.6,7.1-1.5,10.6c0.8,2.5,3.3,8.2,6,7.8c0.4,3.4,1,2.9,1.4,6.2c0,1.2,0.4,2.3,0.9,3.3c0.7,1,2.1,4.1,3,4c0.3,1.4,0.6-0.2,1.3,1.1c0.7,1.3,2,5.9,3.4,6.3c1.7,0.4,3.5,0,4.7-1.2c0.8-1,0.1-5.1,0.2-6.3c0.6,0.3,1,0.8,1.1,1.5c0.1,0.6,2,5.5,2.2,6c0.4,1.1,1.7,0.3,2.9,0.2c1.2-0.1,1-3.5,0.8-4.2c0.8,0.8,1.6,4.7,2.7,4.8c1.1,0.1,2.2-0.2,2.4-1.3c0.5,0.6,3-0.8,3.8-1.1c0.8-0.3,0,0.8,0,0c0,0.9,0.9,1.1,1.6,0.4s0.5-5.5,0.5-6.4c0.1-5.2-0.9-10.3-2.9-15.1c-7.8-9.6-12.6-21.1-14-33.2c-0.4-4.7-0.6-9.4-0.5-14c-0.1-7.4,0.4-14.7,1.6-22c1.6-11.9,2.6-23.8,2.8-35.8c0.7-13.6-0.1-27.4-2.4-40.9c-0.7-3.3-1.1-6.7-1.1-10.1c-1.4-1.3-2.3-3-2.6-4.9c0.1,0.3,0.1,0.7,0,1c0.1,1.7-0.4,3.3-1.5,4.6c-0.5,0.8-1.2,1.5-1.9,1.9c-1,0.7-2.2,1.1-3.4,1.2c-1.1,0.1-2.2,0.2-3.2,0.1c-2.2,0.2-4.4-0.6-5.9-2.2c-1.5-1.6-2.5-3.6-2.8-5.8c-0.4-2.1-0.5-4.3-0.5-6.4C127,413.1,126.7,414,127,413.7z"/>
	<path id="Left upper abdomen" title="Left upper abdomen" fill="#CCCCCC" stroke="#1b87f7" d="M121.5,173.9l0.1,40.2c0,0,23.6,0,23.9-0.3c-1.4-1.9-2.3-4.2-2.5-6.5c0-2.4,0.1-4.8,0.5-7.1c-3.4-4.7-6.2-9.8-9.5-14.7C130.7,180.5,126.7,176,121.5,173.9z"/>
</g>
</svg>
