<?xml version="1.0" encoding="utf-8"?>
<svg version="1.1" xmlns="http://www.w3.org/2000/svg" xmlns:xlink="http://www.w3.org/1999/xlink" x="0px" y="0px" viewBox="0 0 209.2 602.3" style="enable-background:new 0 0 209.2 602.3;" xml:space="preserve">
<g>
	<path id="Head back" title="Head back" fill="#CCCCCC" stroke="#1b87f7" d="M89.7,5.8c-5,4.1-8.1,10.1-8.6,16.5c-0.4,4.7,0.6,9.3,1.6,13.8c-0.6,0.2-1.3,0.1-1.8-0.3c-0.5-0.4-1-0.8-1.7-1c-1.1-0.1-2.1,0.7-2.3,1.8c-0.2,1.1-0.1,2.1,0.2,3.2c1,4.4,2.5,8.6,4.4,12.7c0.4,0.7,1.2,1.6,1.8,1c0.2,4.1,1.6,8.1,3,12c0.5,1.5,1.1,2.9,1.9,4.2c-0.5-4.2-1-8.4-1.8-12.5c-0.2-1.2-0.5-2.5-0.7-3.8c-0.5-2.8-0.8-5.7-1-8.5c4.1,5.9,10.9,9.5,18.1,9.5c5.7,0.9,11.4-1.2,16.5-4c1.4-0.7,2.6-1.6,3.8-2.7c1.1-1.1,1.9-2.5,2.9-3.4c0.9,4-0.6,8.1-2,11.9c-1.4,3.8-3,7.9-2.2,11.5c2.1-4.1,2.8-8.8,3.5-13.4c0.3,0.1,0.6-0.2,0.8-0.4c2-2.1,2.9-5,4-7.7c1-2.5,2.3-5,2.5-7.7c0.1-0.8,0-1.6-0.4-2.3c-0.4-0.7-1.2-1.1-2-0.8c-0.4,0.2-0.8,0.6-1.1,1c-0.3,0.4-0.6,0.7-1,1c-0.4,0.2-1,0.2-1.2-0.3c0.4-6.5,0.8-13.1-0.3-19.8c-0.9-2.6-2.1-5.1-3.4-7.5c-1.4-2.5-3.4-4.8-5.7-6.5c-4.1-3.1-6.7-2.7-10.3-3.1C100.9-0.7,94.4,1.9,89.7,5.8z"/>
	<path id="Neck back" title="Neck back" fill="#CCCCCC" stroke="#1b87f7" d="M84.8,46c1.4,7.2,2.9,14.5,3.7,21.8c0.3,2.1,0.3,4.2-0.2,6.2c0.7,0.8,1.5,1.5,2.4,2.1c4.3,3.2,8.6,6.3,13.1,9.4c6.2-3.5,12-7.6,17.4-12.3c-0.4-4.5,0-9.1,1.3-13.4c1.4-4.8,3.8-9.5,3.6-14.8c-2.1,3.1-5,5.5-8.3,7.1c-3.4,1.6-7.1,2.6-10.8,3c-3.3,0.2-6.5-0.1-9.7-0.9c-3.2-0.7-6.1-2.3-8.6-4.5C87.3,48.6,86.1,47,84.8,46z"/>
	<path id="Whole back" title="Whole back" fill="#CCCCCC" stroke="#1b87f7" d="M87.3,75c-3.6,3.3-7.4,6.4-11.4,9.2c-1.6,1.2-3.3,2.2-5.2,3c-2.6,1.1-5.4,1.5-7.8,2.3c-3.2,3.6-6.6,7.4-8.2,12.1c-0.4,1.2-0.7,2.4-0.7,3.6c-0.1,4,2.8,7.4,5.1,10.7c3.4,4.9,5.9,10.6,6,16.8c-0.1,9.4-1.4,18.8-4,27.9c1,14.3,3.3,28.5,7,42.4c-0.4,5.9-3.4,11.2-6,16.5c-3.3,6.8-6,13.9-8.2,21.2c0,0,98.5-0.4,98.6-0.6c-0.4-4.8-2.6-9.2-4.5-13.5c-2.7-6-5.2-12.1-7.3-18.4c-0.5-1.4-0.9-2.9-1.1-4.3c-0.1-2.4,0.3-4.7,1-7c3.2-12.2,5.3-24.7,6.3-37.3c-3.5-9.8-4.5-20.3-2.9-30.6c0.5-3.2,1.3-6.3,2.5-9.3c2.4-5.7,6.4-10.5,8.5-16.3c0.2-1.5-0.1-3-0.7-4.4c-0.6-1.3-1.4-2.6-2.3-3.8l-2.5-3.5c-0.6-0.9-1.3-1.6-2.3-2.1c-4.3-0.5-8.4-1.9-12.2-4c-3.7-2.1-7.2-4.7-10.4-7.6c-1.3-1.2-2.6-2.4-3.8-3.6c-4.3,3.5-8.9,6.6-13.4,9.7c-1.1,0.9-2.3,1.5-3.7,1.9c-5.4-3.6-10.6-7.5-15.7-11.6C87.7,74.4,87.5,74.7,87.3,75z"/>
	<path id="Shoulder" title="Shoulder" fill="#CCCCCC" stroke="#1b87f7" d="M62.5,89.5c-3.6,4-7.3,8.2-8.6,13.4c-0.4,1.3-0.4,2.7-0.3,4.1c0.5,2.1,1.4,4,2.8,5.7c3.1,4.5,6.4,9.2,7.5,14.7c0.7,4.6,0.8,9.2,0.3,13.8c-0.7,6-1.8,11.9-3.1,17.8c-1.9,6-4,12-6.4,17.8c-3.5,1.1-7.2,1.2-10.8,0.2c-3.6-1-6.7-3.3-8.8-6.4c0.3-1.3,0.5-2.5,0.8-3.8l4.5-20.3c1.2-5.5,2.5-11.1,1.7-17c-1.3-5.9-1.9-12-1.8-18c0.1-4.6,0.6-9.4,3-13.4c2-3.1,4.8-5.5,8.2-6.9C55.1,89.8,58.8,89.2,62.5,89.5z"/>
	<path id="Elbow" title="Elbow" fill="#CCCCCC" stroke="#1b87f7" d="M35.1,171.2c-0.6,1.8-1.2,3.6-1.8,5.4c0.3,2.9,1.1,5.8,2.4,8.4c1,2.3,2.8,4.2,5,5.3c1.8,0.4,3.7,0.1,5.3-0.7c1.6-0.8,3.1-1.9,4.5-3.1c1-0.8,1.9-1.6,2.8-2.5c0.4-0.4,0.8-0.8,1-1.3c0.2-0.4,0.2-0.9,0.2-1.4c0.1-1.2,0-2.4-0.1-3.7c-0.1-0.2-0.2-0.4-0.4-0.4c-3.4,1-7,1-10.4-0.1C40.3,176,37.3,173.9,35.1,171.2z"/>
	<path id="Forearm, hand, fingers" title="Forearm, hand, fingers" fill="#CCCCCC" stroke="#1b87f7" d="M32.9,177.8c-6.3,14.8-6.3,31.4-5.9,47.1c-2.3,10.8,0.5,22.2-2.3,32.8c-2,6.3-1.1,13.2-1.4,19.9c-0.1,3.3-0.5,6.6-1.1,9.8c-0.4,1.4-0.5,2.8-0.5,4.2c0.1,0.8,0.3,1.7,0.6,2.5c1.5,4.5,3.5,9,7,12.2c2,1.7,4.1,3.1,6.4,4.3l9,5.1c0.3,0.2,0.6,0.3,0.9,0.2c0.4-0.2,0.5-0.8,0.5-1.2c-0.3-2.5-2-4.6-3.8-6.4S38.4,305,37,303c-0.3-0.4-0.5-0.8-0.6-1.3c-0.2-0.9,0.3-1.8,0.1-2.7c-0.3-1.2-1.8-2-1.5-3.2c0.1-0.4,0.3-0.7,0.6-1c0.5-0.5,0.9-1.2,1-1.9c0-0.8-0.2-1.5-0.4-2.2c-0.1-0.8,0.1-1.7,0.9-1.9c0.8-0.2,1.3,0.5,1.6,1.1c2.2,3.9,1.7,8.9,3.5,13c0.3,0.8,0.8,1.4,1.4,1.9c0.7,0.5,1.6,0.4,2.2-0.2c0.3-0.5,0.5-1.1,0.4-1.7c-0.1-1.6-0.3-3.2-0.9-4.6c-0.5-1.4-1.2-2.7-1.5-4.1c-0.2-1.1-0.4-2.3-0.4-3.4c-0.1-1.8-0.2-3.5-0.4-5.1c-1.2-5.7-5.5-10.3-6.8-16c-0.6-3.3-0.5-6.6,0.1-9.9c0.9-6.1,2.2-12.2,3.8-18.1c1.7-7.6,3.8-15.1,6.3-22.4c0.9-2.4,1.8-4.8,2.6-7.2c3.2-9.1,4.9-18.7,5.1-28.4c-1.6,1.9-3.5,3.5-5.6,4.9c-1.2,0.9-2.6,1.6-4,2c-1.5,0.4-3.2,0.3-4.7-0.3c-2.6-1.6-4-4.4-5.2-7.2C33.8,181.4,33.2,179.6,32.9,177.8z"/>
	<path id="Shoulder" title="Shoulder" fill="#CCCCCC" stroke="#1b87f7" d="M148.8,89.8c1.8,1.7,3.4,3.6,4.8,5.7c1.1,1.6,1.9,3.3,2.4,5.2c0.4,2.1-0.2,4.3-1.5,6c-1.7,3.6-4.1,6.7-5.9,10.2c-2.8,5.5-3.9,11.7-4.3,17.8c-0.6,8.5,0.6,17,3.6,24.9c2.9,6.2,5,12.8,6.4,19.5c0.1,0.7,0.4,1.3,1,1.7s1.2,0.7,1.8,0.9c2,0.8,4.1,1.3,6.2,1.4c2.1,0.1,4.3-0.4,6.1-1.5c0.7-0.4,1.3-0.9,1.9-1.5c1.4-1.3,2.6-2.9,3.5-4.6l-3.3-14.5c-2.9-12.8-5.8-26.1-2.6-39.5c1.2-7.3,0.1-14.8-3.1-21.4c-0.5-1.2-1.2-2.4-2.1-3.4c-0.7-0.8-1.5-1.5-2.4-2.1C157.7,92,153.4,90.3,148.8,89.8z"/>
	<path id="Elbow" title="Elbow" fill="#CCCCCC" stroke="#1b87f7" d="M154.5,180.8c0.3,2,0.6,4.1,0.8,6.1c0.1,0.5,0.2,1.1,0.3,1.6c0.2,0.6,0.5,1.2,0.9,1.8c1.4,2.1,3.2,3.8,5.3,5.2c1.9,1.2,4.2,2,6.4,1.4c1.5-0.5,2.8-1.5,3.8-2.8c1.9-2.3,3.3-5,4-7.8c0.2-0.9,0.3-1.7,0.5-2.6c0.1-0.7,0.2-1.3,0.2-2c-0.1-2-1.5-3.7-1.9-5.3c-1.9,3.5-5.2,6.5-9.1,7.2c-2.9,0.5-5.8-0.3-8.5-1.3C156.1,182.1,155.2,181.6,154.5,180.8z"/>
	<path id="Forearm, hand, fingers" title="Forearm, hand, fingers" fill="#CCCCCC" stroke="#1b87f7" d="M155.3,189.5c0.8,9.6,3.6,18.9,6.4,28.1c2,6.8,4.1,13.5,5.9,20.8c2.5,8.4,4.5,16.9,5.9,25.5c0.1,1.5-0.1,3-0.6,4.5c-0.6,2.3-1.3,4.5-2.2,6.6c-1.7,3.8-4.5,7.1-5.5,11.1c-0.3,1.4-0.5,2.7-0.6,4.1c-0.4,3.5-1.1,7-2.1,10.4c-0.3,0.8-0.4,1.6-0.3,2.4c0.1,0.8,0.9,1.4,1.7,1.3c0.3-0.1,0.6-0.3,0.8-0.5c2.1-1.9,2.4-4.9,2.8-7.6c0.4-2.7,1-5.8,3.3-7.4c0.4-0.2,0.9-0.4,1.2,0c0.1,0.1,0.1,0.3,0.1,0.4l0.8,5.6c0,0.3,0,0.6,0,0.9c-0.1,0.4-0.2,0.7-0.4,1c-0.7,1.4-0.9,3-0.6,4.6c-0.4,1.2-1.7,1.9-2.5,3c-0.3,0.6-0.7,1.1-1.1,1.6c-0.3,0.3-0.6,0.5-1,0.7c-0.9,0.7-1.8,1.5-2.6,2.5l-2,2.2c-0.6,0.5-1,1.2-1.3,1.9c-0.4,0.9-0.1,1.9,0.8,2.4c0.5,0.3,1.1,0.3,1.6,0c0.6-0.3,1.2-0.6,1.7-1.1c1.4-1.2,2.8-2.3,4.3-3.4c1.2-0.8,2.4-1.5,3.7-2.2l7.3-4.2c0.6-0.3,1.1-0.7,1.6-1.2c0.5-0.6,0.8-1.3,1-2.1c0.8-2.5,1.9-5,3.2-7.3c1.8-4.6,0.1-9.7-0.5-14.5c-0.8-6.2,0.3-12.5-1.2-18.5c-0.7-2.9-2-5.7-1.7-9.2c-0.8-11-1-22.1-0.7-33.3c-0.2-7-0.7-14-1.6-20.9c-0.2-1.6-0.4-3.3-0.6-4.9c-0.1-1.1-0.3-2.2-0.5-3.4c-0.4-1.8-1-3.5-1.7-5.1c-0.3-0.8-0.6-1.6-1-2.5c0,2.8-0.7,5.6-1.9,8.1c-0.9,2.4-2.4,4.5-4.3,6.1c-0.7,0.6-1.6,1.1-2.5,1.5c-0.8,0.3-1.8,0.3-2.6-0.1c-3-1-5.7-2.7-7.8-5c-1.1-1.2-2-2.6-2.4-4.1C155.3,188.8,155.3,189.4,155.3,189.5z"/>
	<path id="Buttock" title="Buttock" fill="#CCCCCC" stroke="#1b87f7" d="M53.9,241.1c-1.1,10.7-2.9,21.3-5.5,31.7c-0.7,2.2-1,4.6-0.9,6.9c0.2,1.4,0.5,2.9,1.1,4.2c1.3,3.4,3.3,6.6,5.8,9.4c4.4,4.9,10,8.5,16.3,10.5c6.3,2,13,2.3,19.5,0.8c7.2-1.6,12.9-7.2,14.6-14.4c3.5,5.4,7.6,10.8,13.3,13.7c7.8,4,17.6,2.8,25.1-1.7s13-11.8,16.4-20.2l-7.3-41.2L53.9,241.1z"/>
	<path id="Thigh back" title="Thigh back" fill="#CCCCCC" stroke="#1b87f7" d="M47.4,282.1C46,299,46.5,316,48.9,332.9c2.5,14.5,4.9,29,7.2,43.6c2.9,15.2,4.2,30.6,3.9,46c0,0.4,0,0.9,0,1.3c1.1-3.4,2.9-6.6,5.1-9.4c2.3-2.8,5.6-4.7,9.2-5.2c1.1,0,2.3,0.2,3.4,0.6c1,0.3,2,1,2.6,1.8c2.5,3.1,3.2,7.2,4.2,11.1c0.6,2.6,1.5,5.2,2.8,7.6c2.4-8.3,4.1-16.8,5.1-25.4c1.7-12.9,1.5-25.9,1.4-37.8c1.1-12.5,2.7-25,4.9-37.6c1.2-10.9,2.4-21.8,3.6-32.6c-2.7,3.5-6.4,6.2-10.6,7.7c-2.8,0.8-5.6,1.2-8.5,1.3c-4.6,0.1-9.3-0.6-13.7-2.1c-3.6-1.4-7-3.3-10-5.6c-2.1-1.5-4-3.3-5.6-5.3c-2.6-3.1-4.7-6.6-6.1-10.5c-0.2-0.3-0.2-0.7-0.2-1.1C47.5,281.6,47.4,281.9,47.4,282.1z"/>
	<path id="Shin back" title="Shin back" fill="#CCCCCC" stroke="#1b87f7" d="M59.9,424.8c1.3-3.7,3.2-7.2,5.6-10.3c2.6-3,6.3-5.2,10.3-5c0.8,0.1,1.7,0.3,2.5,0.6c0.8,0.3,1.5,0.9,2,1.5c1,1.2,1.8,2.7,2.3,4.2c0.8,2.5,1.5,5,2,7.6c0.7,2.5,1.5,4.9,2.5,7.3c-0.6,7.5,1.9,14.8,2.9,22.7c1.5,16.7-0.9,33.5-7.2,49.1c-0.8,2.2-1.3,4.5-1.5,6.9c-1.3,11-2,22.1-2.1,33.3c0.2,7,0.9,14.1,2.2,21c-1.7,8.7-1.7,17.7,0.1,26.4c0.5,1.6,0.6,3.4,0.4,5c-0.3,1.8-1.6,3.2-3.3,3.5c-4.1,2-8.8,2.3-13.1,0.8c-0.9-0.3-1.8-0.8-2.6-1.3c-0.7-0.6-1.4-1.3-2.1-2c-1.1-1-2.3-1.9-3.6-2.7c-2.3-1.3-4.8-2.2-7-3.6c-2.2-1.4-4.4-3.2-4.9-6c-0.2-2.6,0.8-5.2,2.5-7.2c1.8-1.9,3.9-3.5,6.2-4.7c0.3-0.1,0.5-0.3,0.8-0.5c0.5-0.7,0.3-1.7,0.3-2.7c0.9-4.8,1.8-9.5,2.6-14.3c0.5-2.5,0.9-5.1,1.2-7.7c0.8-7.4,0.6-14.9-0.5-22.3c-0.2-17.9-4.6-35.6-3.3-53.4c0.3-5.2,0.6-10.4,0.8-15.5c0.1-2,0.2-4,0.5-6c0.9-7.1,3.5-13.9,3.9-21.1C60.4,427.1,60.3,425.9,59.9,424.8C60,424.6,60,424.6,59.9,424.8z"/>
	<path id="Thigh back" title="Thigh back" fill="#CCCCCC" stroke="#1b87f7" d="M105.1,292.2c2.2,6.3,2.5,13,3,19.6c0.9,12.2,2.6,24.4,5,36.4c2.1,18.1,3.5,36.2,4.3,54.4c0.2,10,5.2,19.1,7,28.7c-0.1,0.3,0.4,0.1,0.5-0.2c0.7-2.7,1.2-5.5,1.4-8.4c0.2-2.8,1.1-5.6,2.4-8.1c1.4-2.5,4-4.2,6.8-4.5c3.5-0.5,7,0.8,9.4,3.4c0.7,0.9,1.4,1.8,2,2.8c2.2,3.3,3.9,6.9,5,10.6c-1-4.1-1.4-8.2-1.3-12.4c0-3-0.1-5.9,0-9.8c0.3-16.3,1.5-32.5,3-48.9c4.1-20.7,6.5-41.7,7.1-62.8c0.1-3.5,0.1-7-1.1-9.6c-2.8,5.7-6.7,10.8-11.5,15c-5.6,5.5-13.2,8.5-21.1,8.1c-4.6-0.3-9-2-12.6-4.8C110.9,299.1,107.7,295.9,105.1,292.2z"/>
	<path id="Shin back" title="Shin back" fill="#CCCCCC" stroke="#1b87f7" d="M131.9,412.1c-3,2.1-4.3,6-4.8,9.6c-0.5,3.6-0.7,7.5-2.6,11c0.7,8.7-0.7,17.4-0.9,26c-0.4,11.9,1.5,23.8,5.7,34.9c1.8,4.2,2.4,8.9,2.9,13.4c1.1,10.6,1.4,21.3,1,32c0.4,8.5-0.3,17.1-2.1,25.4c-0.3,1.2-0.4,2.4-0.4,3.7c0.2,1.7,1.3,3.2,1.5,5c0.4,3.3-2.4,6.9-0.9,9.9c0.4,0.6,0.9,1.3,1.2,2c0.3,1,0.3,2.1,0.1,3.1c-0.4,3.5,0.2,7.1,1.9,10.3c1.8,2.9,5.4,4.2,8.8,3.8c3.3-0.5,6.4-2.1,8.8-4.5s4.6-4.9,6.7-7.6c1.6-2,3.5-4,3.7-6.5c0-1.9-0.5-3.8-1.5-5.4c-0.9-1.9-2.3-3.5-3.9-4.8c-2.1-9.3-4.2-18.7-3.6-28.7c0.4-21,2.1-42,5.1-62.8c0.4-5.6,0.7-11.2,0.5-16.9c-0.1-4.1-0.5-8.3-1.2-12.4c-1.5-8-3.5-15.9-6-23.7c0.1-0.6-0.1-1.2-0.4-1.8l-2.3-5.3c-1.6-3.5-3.4-7.3-6.7-9.3c-0.9-0.5-1.8-0.9-2.7-1.2c-0.8-0.3-1.7-0.5-2.7-0.6c-0.8,0-1.6,0.1-2.4,0.3C133.6,411.2,132.7,411.6,131.9,412.1z"/>
</g>
</svg>
