<?xml version="1.0" encoding="utf-8"?>
<svg version="1.0" xmlns="http://www.w3.org/2000/svg" xmlns:xlink="http://www.w3.org/1999/xlink" x="0px" y="0px" viewBox="0 0 209.22 602.29" style="enable-background:new 0 0 209.2 602.3;" xml:space="preserve">
<g>
	<path id="Neck front" title="Neck front" fill="#CCCCCC" stroke="#1b87f7" d="M87.1,63c0.5,5.2,1.1,10.4,1.6,15.6c0.2,1.5,0,3.1-0.6,4.5c-1.4,3-3.9,5.4-6.4,7.6c-6.7,5.8-14,10.9-21.7,15.4l96.6,0.2c-2-2.4-5-3.8-7.7-5.2c-8.3-4.4-15.7-10.4-21.6-17.7c-0.1-6.1,0.3-12.2,1.1-18.2c-0.9,2.2-2.4,4-4.3,5.4c-1.9,1.4-3.9,2.6-6,3.6l-3.7,2c-1.8,1-3.9,1.9-5.9,1.4c-4.2-0.8-8.2-2-12.2-3.5c-1.1-0.4-2.1-0.9-3.1-1.6c-0.6-0.5-1.1-1-1.5-1.6C89.8,68.4,88.3,65.8,87.1,63z"/>
	<path id="Shoulder" title="Shoulder" fill="#CCCCCC" stroke="#1b87f7" d="M70.6,106.8l-20.7,25.5c0,0-0.3,5.9,0.2,6.4c4.6,7.2,5.7,16.1,3,24.2c1.2,4.8,2.4,9.6,3.6,14.9c0,2-0.4,4-1.2,5.9c-2.4,6.9-5.4,13.6-9.1,20c-1.9,0.8-3.8,1.9-5.5,3.1c-1,0.8-2.1,1.5-3.3,2.1c-1.2,0.6-2.7,0.8-4,0.4c-1.4-0.2-2.7-0.8-3.8-1.7c-1.3-0.8-2.3-1.9-3-3.3c-0.2-0.6-0.4-1.3-0.6-1.9c-0.3-0.7-0.6-1.3-1-1.9c-1.6-2.7-3.2-5.4-3.6-8.6c-0.3-7.2,1.3-14.3,3.4-21c1.1-2.6,2-5.2,2.9-7.8c0.4-1.1,0.7-2.4,0.2-3.1c-1.5-8.8-1.7-17.8-0.6-26.6c0.5-2.9,1.3-5.7,2.4-8.4c3.8-7.3,10.3-12.9,18.1-15.4c3.5-1.5,7.2-2.4,11-2.7C62.8,106.7,66.7,106.7,70.6,106.8z"/>
	<path id="Forearm, hand, fingers" title="Forearm, hand, fingers" fill="#CCCCCC" stroke="#1b87f7" d="M21.7,192.8l-6.5,11.4c-0.6,1.1-1.2,2.2-1.7,3.3c-0.4,1-0.7,2.1-1,3.2c-2.5,9.7-4.2,19.5-5,29.5c-0.4,13.8-2.1,27.6-5.2,41.1c0.3,7.4-0.2,14.8-1.5,22.1c-0.5,2.1-0.8,4.3-0.8,6.5c0.2,2,0.7,3.9,1.5,5.7c1.5,4.1,3.2,8.1,4.9,12.2c2.8,2.6,5.6,5.1,8.5,7.6c1.1,1,2.3,1.9,3.5,2.7c1.2,0.6,2.4,1.2,3.7,1.7l5.3,2c0.5,0.2,1,0.4,1.6,0.4c0.6,0,1.1-0.2,1.5-0.7c0.6-1-0.4-2.2-0.4-3.4v-1c-0.1-0.4-0.3-0.8-0.5-1.1c-0.9-1.2-2.1-2.2-3.5-2.8c-0.6-0.2-1.1-0.5-1.6-0.9c-0.4-0.4-0.8-0.9-1.1-1.4c-1.8-2.4-4.9-3.7-7-6.4l-1.5-4.8c-0.1-0.4-0.2-0.7-0.2-1.1c0.1-0.7,0.4-1.4,0.7-2c0.4-1.4-0.2-3,0.4-4.3c2.2,4.4,2,9.8,5,13.7c0.5,0.7,1.2,1.3,1.9,1.7c0.8,0.4,1.7,0.4,2.5,0c1-0.7,1.5-1.9,1.4-3.1c0.1-3.1-1.5-6-2.2-9.1s-0.8-6.2-1.1-9.3c-0.2-3.3-1.3-6.4-3.1-9.1c-0.1-4.4-1-8.8-2.5-13c-0.2-1.9,0.1-3.9,0.8-5.7c3.4-10,7.7-19.6,12.8-28.8c2.4-4.2,4.8-8.4,7.2-12.5c2.2-3.6,4.1-7.4,5.8-11.3c2.8-6.8,3.7-14.2,2.9-21.5c-0.2-0.4-0.7-0.2-1.1,0l-6.7,4.3c-0.7,0.4-1.4,0.8-2.1,1.1c-1.4,0.3-2.9,0.2-4.3-0.1c-1.6-0.5-3-1.2-4.3-2.3c-1.2-1.1-2.1-2.5-2.4-4.1c0-0.2-0.1-0.4-0.1-0.6l-0.3-0.6C24.4,199,22.1,196.1,21.7,192.8z"/>
	<path id="Shoulder" title="Shoulder" fill="#CCCCCC" stroke="#1b87f7" d="M147.3,107c0,0,17.3,22.4,17.3,22.8c0.1,2.6,0.3,5.2,0.2,8.3c-4.5,9.7-6.6,21-3.5,31.3c-1.6,2.6-3.3,5.4-3.4,8.4c0,1.5,0.3,2.9,0.7,4.3c1.3,4.8,3.1,9.4,5.4,13.9c0.8,1.6,1.7,3,2.8,4.4c1.5,1.6,3.3,3.1,5.2,4.3c1.5,1.1,3.2,2,4.9,2.7c1.9,0.7,3.9,0.6,5.7-0.3c2.3-1.3,2.6-4.5,4.1-6.6l1.2-1.5c0.5-0.9,0.9-2,1.1-3c0.8-2.2,2.2-4.1,4-5.6c-0.4-8.1-1.7-16.1-3.7-23.9c-0.3-1.7-1.2-3.3-2.4-4.5c1.3-10.9,2.5-22-0.5-33c-1.2-3.6-2.9-7-5.1-10.1c-2.2-3.2-5.3-5.8-8.9-7.4C164.7,107.6,156,106,147.3,107z"/>
	<path id="Forearm, hand, fingers" title="Forearm, hand, fingers" fill="#CCCCCC" stroke="#1b87f7" d="M167.4,201.6c-1.3,7.4-0.2,15,1.9,22.2s5.3,14,8.5,20.8c3.1,6.5,6.1,13.1,9,19.9c3.1,6.2,5.3,12.8,6.5,19.6c-0.6,4.4-1.8,8.7-3.6,12.8c-0.8,1.9-1.8,3.8-2.5,5.7c-1,3.1-1.7,6.3-2.1,9.5l-1.5,9.3c-0.3,1.5-0.4,3.1-0.4,4.7c0,0.4,0.1,0.9,0.4,1.2c0.7,0.5,1.6,0.6,2.3,0.1c2.7-1.3,4.1-4.2,5-7.1s1.4-5.9,3.1-8.3c-0.7,1.5,0,3.4,0.3,5c0.9,5.1-2.3,10-5.4,14.2c-0.4,0.6-0.9,1.2-1.5,1.7c-0.8,0.5-1.6,1-2.5,1.4c-2.3,1.3-4.1,3.3-5.2,5.7c-0.6,0.8-0.4,1.8,0.4,2.4c0.4,0.3,1,0.4,1.5,0.2c4.7-0.1,8.9-2.9,12.8-5.5c2.5-1.6,4.8-3.4,6.9-5.4c4.1-4.2,6.3-9.9,7.3-15.7s0.7-11.7,0.4-17.6c-0.1-2.6-0.2-5.2-0.4-7.8s-0.3-5.3-0.4-7.9c0.1-3-0.6-6-2-8.7c-1.1-13.3-1.7-26.7-1.7-40.2c-0.2-12-2.9-23.8-8-34.7c-1.4-2.7-2.6-5.4-3.6-8.3c-1.6,1.1-2.7,2.6-3.3,4.4c-0.2,1-0.5,1.9-0.9,2.8l-1.2,1.8c-1,1.5-1.8,3.1-2.5,4.8c-0.5,1.1-1.3,2-2.2,2.8c-0.9,0.7-2.1,1-3.2,0.9c-1.7,0.1-3.3-0.3-4.8-1c-0.8-0.4-1.5-0.9-2.2-1.4C171,204.6,169.2,203.2,167.4,201.6z"/>
	<path id="Right upper abdomen" title="Right upper abdomen" fill="#CCCCCC" stroke="#1b87f7" d="M89.8,173.6c-3.6,1.1-6.9,3.1-9.6,5.8c-1.1,1-2.1,2.1-3,3.3c-0.7,1.2-1.4,2.4-2,3.6c-1.3,2.5-2.7,4.9-4.2,7.2c-1,1.7-2.2,3.2-3.6,4.5c-1.4,1.3-3.2,2.3-5.1,2.7c0.2,3.7,0.4,7.5,2.1,10.9c8.7,0.1,17.4,0.2,26.2,0c0.2-12.8,0.3-25.6,0.2-38.4C90.4,173.1,90.1,173.2,89.8,173.6z"/>
	<path id="Head Front" title="Head Front" fill="#CCCCCC" stroke="#1b87f7" d="M95,5.2c-4.8,4.2-8.1,9.7-9.5,15.9c-1.4,6.1-1.6,12.3-0.8,18.5c-0.4-0.6-0.9-1.1-1.5-1.5c-0.2-0.2-0.5-0.3-0.8-0.3c-1-0.1-1.9,0.4-2.4,1.2c-0.4,0.9-0.6,1.8-0.5,2.8c0.1,1,0.3,1.9,0.4,2.8s0.1,2.1,0.2,3.2c0.2,1,0.4,2,0.8,3c0.6,1.8,1.4,3.5,2.4,5.1c0.3,0.6,0.8,1.1,1.4,1.4c0.6,0.3,1.4,0.2,1.9-0.3c0.1,1.7,0.4,3.4,0.9,5c0.2,0.6,0.5,1.2,0.8,1.7l2.3,4.7c0.4,0.9,1,1.7,1.6,2.5c0.7,0.7,1.5,1.2,2.3,1.7c1.3,0.8,2.7,1.5,4.2,2c2.1,0.8,4.2,1.5,6.4,2c2.2,0.5,4.5,0.6,6.8,0.2c2.7-1,5.2-2.2,7.7-3.6c1.5-0.8,3-1.7,4.4-2.8c1.4-1,2.5-2.4,3.2-3.9c1.8-2.7,2.6-5.8,2.4-9c0.7,0.4,1.7,0.3,2.3-0.2c0.4-0.3,0.7-0.8,0.8-1.3c1.3-3.1,2.3-6.3,3.1-9.5c0.5-1.7,0.9-3.4,1.1-5.2c0.1-0.7,0-1.4-0.2-2c-0.2-0.7-0.7-1.2-1.3-1.5c-1.1-0.5-2.4,0.3-3.3,0.9c0.2-6.6,0.1-13.3-1.6-19.7s-5.4-12.4-11-16.1c-4-2.1-8.5-3.1-13-2.8C102.2,0.6,98.2,2.3,95,5.2z"/>
	<path id="Mouth" title="Mouth" fill="#CCCCCC" stroke="#1b87f7" d="M112.2,54.2c-3.6-0.9-7.3-0.7-10.8,0.5c-1.1,0.3-2.1,0.9-2.9,1.7c-0.8,0.8-1.2,2-1,3.1c0.2,0.6,0.5,1.2,1,1.7c1.3,1.3,3,2.2,4.9,2.6c1.8,0.4,3.7,0.5,5.6,0.4c2,0.1,4-0.3,5.8-1.1c1.8-0.9,3.1-2.9,2.6-4.8c-0.3-1.2-1.2-2.3-2.3-2.9C114.2,55,113.2,54.6,112.2,54.2z"/>
	<path id="Middle upper abdomen" title="Middle upper abdomen" fill="#CCCCCC" stroke="#1b87f7" d="M91.1,173.4c-0.2,12.7-0.2,25.4,0,38c0,0.1,0,0.1,0.2,0.1l33.6,0.3c0,0,0.3-37.8-0.1-37.8c-1.1-1.4-3.4-1.5-5.3-1.6l-19.7-0.2C97,172.2,93.9,172.2,91.1,173.4z"/>
	<path id="Left upper abdomen" title="Left upper abdomen" fill="#CCCCCC" stroke="#1b87f7" d="M125.3,174.2v37.5c0,0,24.7,0,24.7-0.1c1.5-2.7,2.1-5.8,1.8-8.9c-5.3-3.9-9.2-9.3-13-14.6c-1.9-2.7-4.1-5.3-6.2-7.8S128.4,175.6,125.3,174.2z"/>
	<path id="Whole middle abdomen (navel)" title="Whole middle abdomen (navel)" fill="#CCCCCC" stroke="#1b87f7" d="M65,211.4l-0.4,1.5c-1.4,7.2-2.7,14.3-4.1,21.4c-0.8,4-1.5,8.2,0.1,11.9c0,0,93.3,0.5,93.4,0.4c0.9-4.8,0-9.8-0.8-14.6c-1.1-6.5-2.1-13.8-3.2-20.4"/>
	<path id="Right lower abdomen" title="Right lower abdomen" fill="#CCCCCC" stroke="#1b87f7" d="M60.1,246.8c-0.1,1.9,0,3.9,0.4,5.8c9.4,9.1,17.9,19.1,25.5,29.8l0.2,0.3l3.8-1.4c-0.1-11.3-0.1-22.5,0.3-33.8l-0.1-0.2"/>
	<path id="Middle lower abdomen" title="Middle lower abdomen" fill="#CCCCCC" stroke="#1b87f7" d="M90.6,247.3c-0.3,11.2-0.3,22.4-0.3,33.8c11.3-2.7,23.1-2.5,34.3,0.6l0.3-34.2"/>
	<path id="Left lower abdomen" title="Left lower abdomen" fill="#CCCCCC" stroke="#1b87f7" d="M125.1,247.4l-0.2,34.3c1.5,0.4,3,0.9,4.5,1.2c2.7-5.5,6-10.7,9.7-15.6c0.7-1,1.5-1.9,2.3-2.8c3.9-4.8,7.9-9.6,11.8-14.4l0.4-0.4l0.4-2.5"/>
	<path id="Groin" title="Groin" fill="#CCCCCC" stroke="#1b87f7" d="M86.7,284.3c3.1,7.6,7.2,14.8,12.4,21.2c1.3,1.8,3,3.3,4.9,4.4c3.1,1.4,6.8,0.4,9.9-1.3c7.6-6.3,12.9-14.8,15.3-24.4c-13.3-4.9-27.9-5.4-41.5-1.2C87,283.2,86.3,283.7,86.7,284.3z"/>
	<path id="Thigh front" title="Thigh front" fill="#CCCCCC" stroke="#1b87f7" d="M60.3,254.6c-1.3,7.6-2.4,15.3-3.4,22.9c-0.8,6.2-1.6,12.4-2.3,18.7c-0.7,5.7-1.3,11.3-2,17c-0.4,3.5-0.8,6.9-1.2,10.4c-2.4,24.3-1.1,48.8,3.6,72.7c1.6,4.5,3.9,8.7,6.7,12.5c2.3-3.1,4.9-6.3,8.6-7.4c2.9-0.8,6-0.4,8.6,1.2c2.5,1.5,4.5,3.8,5.7,6.5c4.3-2.8,7.6-6.9,9.5-11.7c3.4-11.5,5.2-23.5,5.4-35.5c0-14,4.5-27.6,4.8-41.6c0-1,0.1-2,0.2-3c0.1-0.7,0.3-1.4,0.5-2.1c0.4-1.3,0.7-2.6,0.8-3.9c-5.3-2.3-9-7.2-12-12.1c-1.7-2.9-3.3-5.8-4.8-8.8c-0.9-2-1.8-4-2.9-5.9c-1.1-1.9-2.3-3.8-3.7-5.6c-6.6-9.1-14.1-17.5-22.3-25.1C60.2,253.7,60.5,253.7,60.3,254.6z"/>
	<path id="Knee" title="Knee" fill="#CCCCCC" stroke="#1b87f7" d="M68.2,402.8c-3.1,1.4-5.3,4.3-5.8,7.6c-0.4,3.3,0.3,6.6,2,9.5c1.8,3.3,5,6.1,8.8,6.1s6.9-2.7,8.9-5.8s3.2-7.3,2.2-11c-1-3.3-3.4-6-6.5-7.4c-1.8-1-3.8-1.4-5.8-1.2C70,401,68.1,402,68.2,402.8z"/>
	<path id="Shin front" title="Shin front" fill="#CCCCCC" stroke="#1b87f7" d="M56.3,400.5c2.5,12.3,3,24.9,1.5,37.4c-0.3,2.2-0.6,4.4-1,6.5c-0.9,5.8-1.8,11.6-3.1,18c-0.4,13,0.3,26,1.9,38.9c1.6,13,4.3,25.9,2.8,39.2c0.3,10.5-3.9,20.6-11.4,27.8c-2.1,2-4.4,3.7-6,6c-1,1.6-1.9,3.3-2.6,5.1l-3.9,9c-0.7,1.2-0.9,2.6-0.7,4c0.4,1.3,2.2,2.2,3.2,0.8c-0.1,1.1-0.2,2.4,0.8,2.9c0.5,0.2,1.1,0.3,1.6,0.2c0.5,0,1-0.1,1.4-0.5c0.4,1.8,2.2,2.9,4,2.5c0,0,0,0,0,0c0.9-0.2,1.6-0.8,2.1-1.5c-0.2,0.9,0.1,1.9,0.8,2.5c0.7,0.6,1.6,1,2.5,1.1c1.3,0.4,2.8-0.2,3.4-1.5c0.5-0.7,0.9-1.4,1.4-2.1c-0.4,2.6,1.4,4.9,3.9,5.4c1.1,0.1,2.2,0,3.2-0.3c1.1-0.2,2.2-0.7,3.1-1.4c0.9-0.9,1.6-1.8,2.2-2.9c1.9-2.6,4.7-4.6,6.3-7.4c1.8-3,1.9-6.7,1.8-10.2c-0.1-0.6,0.2-1.1,0.7-1.4l3.1-2c2.4-1.5,4.8-3.2,5.8-5.8c0.4-1.2,0.6-2.4,0.5-3.6c-0.2-4-1.3-7.8-3.4-11.2c2.3-5.1,1.2-10.9,0.3-16.4c-1.4-7.8-1.8-15.7-1.1-23.6c0.9-19.5,11.8-38.1,9-57.7c0.8-6.8-1.6-13.6-1.2-20.5c0.2-2.6,0.6-5.2,1.2-7.8c2.1-10.2,3.5-20.5,4.1-30.9c0.1-0.3,0.1-0.7,0-1c-2.1,3.7-4.8,7-8,9.8c-0.8,0.5-1.2,1.5-1,2.4c0.1,3-0.5,6-1.7,8.7c-1.3,2.8-3.5,5-6.3,6.2c-3.2,1.4-6.9,0.8-9.5-1.4c-4-3.6-6.1-8.9-5.5-14.3v-0.9c-0.1-0.4-0.3-0.8-0.6-1.1c-2.1-2.9-4-5.9-5.5-9.1C56.3,399,56.3,399.7,56.3,400.5z"/>
	<path id="Thigh front" title="Thigh front" fill="#CCCCCC" stroke="#1b87f7" d="M153.9,250.8c-7.3,8.2-14,16.9-20,26.1c-5,6.4-6,15.2-10.9,21.9c-1.9,2.8-4.1,5.4-6.6,7.7c-1.1,1.3-2.4,2.4-3.8,3.2c-0.6,0.3-1.2,0.5-1.8,0.6c-1.3,0.3-2.6,0.7-3.8,1.3c2.7,8.6,3.5,17.8,4.2,26.8c0.7,8.8,1.2,17.5,1.7,26.7c0.7,8.4,1.5,16.7,2.6,25.1c0.3,3.8,1.1,7.5,2.3,11.1c1.2,3.6,3.7,6.7,6.9,8.7c2.1-4.9,6.8-8.2,12.1-8.6c5.4-0.2,10.4,2.7,12.9,7.4c1.2-1.3,2.4-2.7,3.5-4.1c0.3-0.3,0.5-0.8,0.6-1.2c0.1-0.6-0.3-1.3-0.1-2.2c4.9-10.9,7.9-22.5,8.8-34.4c1.6-20.5,1.8-41.4-4.1-60.9c-1-10.1-1.3-20.2-0.9-30.3c0.1-1.9,0.1-3.7-0.1-5.6c-0.5-3.4-2.2-6.6-3.1-9.9C153.4,257.1,153.2,253.9,153.9,250.8z"/>
	<path id="Knee" title="Knee" fill="#CCCCCC" stroke="#1b87f7" d="M129.8,404c-1.8,1.4-3.2,3.2-4.1,5.3c-0.6,2.3-0.7,4.7-0.1,7c0.2,1.2,0.6,2.4,1,3.6c1.5,3.8,4.5,6.8,8.3,8.3c1.1,0.4,2.2,0.6,3.3,0.7c4.2,0.3,8.3-2.4,10.5-6c2.1-3.7,2.8-8.1,1.9-12.3c0-0.3-0.1-0.7-0.2-1c-0.2-0.4-0.4-0.8-0.7-1.1c-0.6-0.7-1.1-1.4-1.7-2c-1.3-1.4-2.8-2.5-4.4-3.4c-1.1-0.6-2.2-1-3.4-1.3C136.6,401,132.8,401.8,129.8,404z"/>
	<path id="Shin front" title="Shin front" fill="#CCCCCC" stroke="#1b87f7" d="M153,431.6c0.1-9.2,0.6-18.4,1.5-27.6c-1.3,1.4-2.5,2.9-3.7,4.4c1.2,3,1.5,6.3,0.8,9.5c-0.6,3.3-2.3,6.3-4.9,8.5c-2.6,2.2-6,3.1-9.3,2.6c-4.1-0.8-7.6-3.3-9.6-6.9c-2-3.6-2.9-7.6-2.7-11.7c-0.4-0.3-0.8-0.7-1.2-1.1c-2.1-2.1-4-4.4-5.6-6.9c0.3,1.2,0.5,2.5,0.6,3.8c0.7,8.4,0.3,16.9,0.9,25.4c0.3,3.5,0.7,6.9,1,10.8c-4,15.5-4.1,31.8-0.4,47.4c4.6,12.8,7,26.2,7.1,39.8c-0.3,7.1-0.6,14.1-0.9,21.2c0,2.4-0.3,4.8-0.7,7.2c-0.8,3.5-2.4,6.7-3.1,10.2s-0.2,7.6,2.6,9.8c2.1,1.7,5,2,8.5,2.5c0.9,5.1,2.3,11,7.1,13c0.9,0.3,1.8,0.7,2.6,1.3c0.4,0.4,0.7,0.8,0.9,1.3c1.4,2.4,3.7,4.2,6.4,5c2.8,0.7,5.7-0.4,7.3-2.8c1.8,1.9,4.9,1.9,6.7,0.1c0,0,0,0,0.1-0.1l0.1-0.1c0.3,1.4,2.2,2,3.6,1.5c1.3-0.6,2.5-1.6,3.3-2.8c0.5,0.6,1.5,0.7,2.1,0.2c0.7-0.4,1.1-1.1,1.8-1.5c0.5-0.2,0.9-0.6,1.2-1c0.2-0.5,0.2-1.2,0-1.7c-1.6-6-4.7-11.6-8.9-16.2c-2.5-2.7-5.3-5.1-7.8-7.9c-4.8-5.5-7.6-12.5-9.9-20c-3.3-23.4,3.2-46.9,5.2-70.2C159.6,463,152.9,446.9,153,431.6z"/>
	<path id="Thorax" title="Thorax" fill="#CCCCCC" stroke="#1b87f7" d="M70.8,106.8c0,0-20.3,25.5-20.4,25.5c0,1.5-0.1,3-0.1,4.5c0,0.4,0,0.7,0.1,1.1c0.1,0.4,0.3,0.8,0.5,1.2c1.5,2.7,2.6,5.7,3.3,8.7c0.4,2.9,0.6,5.9,0.6,8.8c0,1.5-0.2,2.9-0.6,4.3c-0.2,0.5-0.4,1.1-0.5,1.7c-0.1,0.7,0,1.4,0.2,2.1c1,4.1,2,8.3,3.3,12.4c1.8,7.6,3.5,15.3,4.9,22.9c0,0.2,0.1,0.4,0.2,0.6c2.5-0.7,4.7-2.2,6.3-4.2c1.7-2.1,3.1-4.3,4.4-6.6l2.4-4.3c0.4-0.7,0.8-1.3,1.2-2c1.5-2.4,3.5-4.4,5.8-6c1.7-1.3,3.5-2.5,5.4-3.4c2-0.9,4.1-1.5,6.2-1.8h23.1c1.4,0,2.7,0,4.1,0.2c2.8,0.4,5.4,1.8,7.4,3.8c9,7.8,13.8,19.6,23.6,26.2c1-7.3,2.3-14.6,4-21.8c0.9-3.9,1.9-7.8,4.3-11.2c-2.5-10.8-1.1-22.2,4.1-32c-0.3-2.6-0.4-5.2-0.4-7.8l-17.4-22.7"/>
	<path id="Nose" title="Nose" fill="#CCCCCC" stroke="#1b87f7" d="M106.7,30c-2.1,5.8-4,11.7-5.6,17.7c-0.1,0.2-0.1,0.4-0.1,0.6c0.1,0.2,0.2,0.4,0.4,0.5c1.8,1.5,4.1,2.3,6.5,2.3c2.4-0.1,4.6-1.1,6.2-2.9c0.2-0.2,0.3-0.5,0.2-0.8c-1.4-5.2-2.9-10.3-4.5-15.4c-0.2-0.8-0.6-1.5-1.3-2C107.9,29.5,106.8,29.8,106.7,30z"/>
	<path id="Eyes" title="Eye" fill="#CCCCCC" stroke="#1b87f7" d="M 87.9 35.5 C 89.3 32.7 91.7 30.6 94.6 29.5 C 97.5 28.4 100.8 28.5 103.6 29.7 C 102.7 31.4 101.6 32.9 100.5 34.5 C 100.2 34.9 99.9 35.3 99.5 35.5 C 99.1 35.8 98.5 35.9 98 36 C 94.5 36.5 90.9 37 87.9 35.4 L 87.9 35.5 Z" />
	<path id="Eyes" title="Eye" fill="#CCCCCC" stroke="#1b87f7" d="M 127.4 36.5 C 123.6 37.3 119.3 36.2 115.7 34.7 C 114.5 33.1 113.2 31.5 111.9 29.8 C 114.6 27.7 118.1 28.5 121.1 29.3 C 124.1 30 127.1 33.2 127.4 36.5 Z" />
</g>
</svg>