<?xml version="1.0" encoding="utf-8"?>
<svg version="1.1" xmlns="http://www.w3.org/2000/svg" xmlns:xlink="http://www.w3.org/1999/xlink" x="0px" y="0px" viewBox="0 0 209.2 602.3" style="enable-background:new 0 0 209.2 602.3;" xml:space="preserve">
<g>
	<path id="Head lateral" title="Head lateral" fill="#CCCCCC" stroke="#1b87f7" d="M107.9,6.8c-4.4,1.3-8.6,3.3-12.4,5.9c-3.9,2.6-6.7,6.4-8.2,10.8c-1,3.3-0.8,6.9-1.8,10.2c-0.4,1.2-0.7,2.4-1,3.6c-0.2,1.2,0,2.4,0.5,3.6l-6.1,11.2c-0.2,0.3-0.4,0.7-0.4,1.1c-0.2,1.3,1.3,2.2,2.5,2.6c1.2,0.4,2.7,1,2.9,2.3c0,0.8-0.2,1.5-0.5,2.2c-0.4,0.7-0.3,1.5,0.1,2.2c0.2,0.3,0.6,0.5,0.7,0.8c0.1,0.5-0.4,0.9-0.6,1.4c-0.1,0.6,0.1,1.1,0.5,1.5s0.9,0.7,1.2,1.1c0.7,1,0.9,2.3,0.7,3.5c0,1-0.1,2-0.1,3c0.4,1.5,1.3,2.7,2.7,3.5c1.3,0.7,2.8,1.1,4.3,1.2c2.3,0.2,4.7,0,6.9-0.7c2.2-5.4,7.3-9,12.4-11.7c1.5-0.8,3-1.6,3.8-3c1-1.8,0.5-4.1,1.2-6c1-2.4,3.7-3.5,6.1-2.5c0.8,0.3,1.4,0.8,1.9,1.5c1.2,0.6,2.6,0,3.7-0.8c0.9-1,1.9-1.8,3-2.6c1.5-0.8,3.2-0.7,4.6,0.2c1.5,1,2.6,2.9,4.4,2.9c1.3,0,2.3-1.1,3.1-2.5c-0.2-3.4,1.3-6.7,2.4-9.9c1.3-4.1,1.8-8.5,1.5-12.8c0.2-4.4-1.1-8.7-3.8-12.1s-6-6.4-9.7-8.6c-1.9-1.2-3.9-2.2-6-2.9c-1.6-0.5-3.3-0.8-5-0.9C117.8,5.1,112.2,5.4,107.9,6.8z"/>
	<path id="Ear" title="Ear" fill="#CCCCCC" stroke="#1b87f7" d="M115.7,30.6c-2.5,2.6-3.9,6.1-4,9.7c-0.1,3.6,0.7,7.1,2.2,10.4c0.4,1,1.1,2.1,2.2,2.1c0.5,0,1.1-0.2,1.5-0.5c5.9-3.2,10.4-9.4,10.3-16.1c0-2.7-1-5.6-3.4-6.8c-0.9-0.4-1.8-0.6-2.7-0.6C119.4,28.7,116.9,29.3,115.7,30.6z"/>
	<path title="Abdomen lateral" fill="#CCCCCC" d="M119.5,54.4c-1.3,0.3-2.3,1.4-2.5,2.7c-0.1,0.8,0,1.6,0,2.4c-0.2,2.8-2.9,4.6-5.3,6c-3.2,1.8-6.1,4.1-8.6,6.7c-2.5,2.7-3.8,6.3-3.7,10c0,0.8,0.3,1.6,0.9,2.2c0.4,0.3,0.9,0.4,1.5,0.4c3.8-0.3,4.9-6.3,8.7-6.8c0.8-0.1,1.6,0,2.3,0.2l3.8,0.8c0.4,0,0.7,0.2,1,0.4c0.2,0.3,0.3,0.5,0.3,0.9c0.2,1.2,0.3,2.4,0.2,3.6c0,0.3-0.1,0.7-0.2,1c-0.3,0.5-0.7,1-1.2,1.3c-3.6,2.8-6.2,6.7-9.2,10.8c-8.1,3.8-13.6,11.4-18.7,18.8c-4.7,6.7-9.4,13.4-13.2,20.6c-2.3,4-3.9,8.4-4.6,13c-0.3,2.4-0.1,5.3,1.9,7.2c-2.6,3.7-3,8.5-1.1,12.5c10,8.7,17.8,19.7,22.6,32.1c-3.3,4.5-7.9,8-11.1,12.6c-5.2,7.4-6.6,16.9-7.3,26c-0.6,7.7-0.9,15.3-1.1,22.9l2.8,0.1c8.6-14.6,23.4-24.5,40.1-27c6-0.8,12.6-0.5,17,2.6c-1.7-12.6-0.3-25.5,4.1-37.5c1.6-4.3,3.6-8.4,5.5-12.5c6.8-14.9,11.8-30.5,14.9-46.6c2-10.3,3.1-21.5-1.8-31.4c-0.3-2.3,2.2-3.9,2.6-6.2c0.1-0.9,0-1.8-0.3-2.7c-1.7-6.7-4.2-13.1-7.4-19.2c2.5-0.9,4.6-2.7,5.8-5.2c1.1-2.4,1.9-5,2.3-7.6c1.3,1.3,3.7,0.4,4.5-1.3c0.8-1.7,0.4-3.6-0.3-5.3c-0.4-1.4-1.4-2.6-2.7-3.3c-2-1-4.4,0.2-6.3,1.4c-0.9-4.4-4.6-7.8-9.1-8.2c-0.7-0.1-1.4,0-2.1,0.3c-1.5,0.7-2.4,2.9-4.1,2.9s-2.6-2.2-4-3.3c-1.2-0.8-2.7-1.1-4.1-0.7c-1.4,0.4-2.6,1.3-3.4,2.5c-0.2,0.4-0.5,0.8-0.9,1.1c-1,0.8-2.4,0.3-3.4-0.3s-2.1-1.4-3.4-1.3C120.8,54,120.1,54.2,119.5,54.4z"/>
	<path title="Abdomen lateral" fill="#CCCCCC" d="M71.5,168.9c9.9,8.8,17.9,19.5,23.3,31.6c-6.6,7.1-13.4,14.6-16.3,23.9c-1.1,3.8-1.8,7.7-2.1,11.7c-0.8,5.5-1.1,11-0.9,16.6c0.2,3.7,0.8,7.6-0.9,11c-1.6,0.1-3.2,0-4.7-0.3c-1.6-15.8-1.8-31.9,0.7-47.6c0.6-4.1,1.5-8.2,1.8-12.3c0.3-5.1,0.2-10.3-0.2-15.4C71.8,181.8,71.4,175.5,71.5,168.9z"/>
	<path title="Neck lateral" fill="#CCCCCC" d="M103,85c1.6,4.6,0.9,9.7-1.8,13.8c-1.4,2.1-3.3,3.9-4.5,6.1c2.5-2.8,6-4.2,8.9-6.6c4.2-3.4,6.7-8.5,11-11.7c0.4-0.3,0.8-0.6,1.1-1.1c0.2-0.4,0.2-0.8,0.2-1.2V80c0-0.3,0-0.6-0.2-0.8c-0.2-0.2-0.5-0.4-0.8-0.5c-2.4-0.5-4.9-0.8-7.4-0.7c-0.4,0-0.8,0-1.1,0.2c-0.3,0.2-0.6,0.5-0.8,0.8C106.1,81.1,104.7,82.9,103,85z"/>
	<path id="Axillary pit" title="Axillary pit" fill="#CCCCCC" stroke="#1b87f7" d="M114.1,111.3c-2.9,12.9,2,26.4,12.6,34.5c2.3,1.9,5.1,3.1,8.1,3.6c1.4,0.3,2.8,0,3.9-0.8c0.8-0.7,1.3-1.7,1.7-2.7l6-14.4c0.6-1.4,1-3.4-0.3-4.2c-7.6,1-15.3-1.6-20.6-7.2c-1.7-1.8-3.1-3.9-4.9-5.6C118.9,112.6,116.6,111.5,114.1,111.3C113.9,111.7,113.9,112.3,114.1,111.3z"/>
	<path title="Shin lateral" fill="#CCCCCC" d="M134.6,238.5c-7.8-4.9-18-4-26.7-0.8c-10.3,3.8-19.3,10.4-26,19.1c-2.9,3.7-5.3,7.9-6.1,12.6c-0.8,4.7,0.1,9.9-3,13.6c-0.4,11.2-0.9,22.5,0.1,33.7c2.3,27.3,12.5,53.5,14.4,81.9c0.2,8.4,3.8,16.2,6.7,24c5.2,14.4,8.1,29.5,10.8,45.4c4,15.9,6.2,32.1,6.6,48.5c-9.1,7.3-18.5,14.7-29.5,18.5c-3.9,1.3-7.9,2.2-11.6,3.7c-5.1,2.1-9.7,5.4-14.1,8.7c-2,1.5-4.2,3.5-3.8,5.9c0.3,1.3,1.1,2.4,2.2,3.1c2,1.5,4.5,2.3,7,2.2c3.6-0.2,7-2.3,10.6-1.8c1.9,0.4,3.7,1,5.5,1.7c3.1,1,6.6,0.9,9.8,1.1l-16.6,6c-3.2,1.2-6.5,2.3-9.6,3.6c-2.2,0.9-4.4,1.8-6.6,2.8l-9,3.9c-0.6,0.2-1.1,0.5-1.5,1c-1.2,1.6,0.6,3.6,2.3,4.7c-1.4,1.6-1.2,3.9,0.4,5.3L47,587c0.3,1.5,1,3,2,4.2c1.1,1.1,3.2,1.3,4.2,0.1c0.7,2,2.9,3.1,4.9,2.5c0.1,0,0.2-0.1,0.3-0.1c0.3,1.5,1.4,2.6,2.9,2.9c1.4,0.3,2.9,0.2,4.3-0.3c2.4-0.6,4.6-1.6,7.7-2.7c3.8,2.1,8.1,2.9,12.4,2.4c2.6-0.3,5.1-1.1,7.7-1.3c3.3-0.3,6.6,0.2,9.9,0.3c4.5,0,9-0.4,13.4-1.2l19.5-2.8c2.2-0.2,4.4-0.8,6.4-1.8c1.9-1.2,3.4-3,4.1-5.2c-5.7-32.5-4.8-65.8,2.8-97.9c1-3.8,1.8-7.6,2.3-11.5c0.4-6.3-0.3-12.7-2.1-18.7c0-15.8-4.5-31.1-9-46.2c-2.2-7.4-4.3-14.7-6.6-22.5c-1.6-15.8,3.5-31.8,1.5-47.5c-0.6-4.9-1.9-9.7-2.4-14.6c-0.5-5.9,0.2-11.8,2.1-17.4c4.2-3.7,7.8-8.1,9.8-13.3c3.4-8.9,1.5-18.9-1.5-27.9S136,248.4,134.6,238.5z"/>
</g>
</svg>
