<?xml version="1.0" encoding="utf-8"?>
<svg version="1.1" xmlns="http://www.w3.org/2000/svg" xmlns:xlink="http://www.w3.org/1999/xlink" x="0px" y="0px" viewBox="0 0 209.2 602.3" style="enable-background:new 0 0 209.2 602.3;" xml:space="preserve">
<g>
	<path id="Whole back" title="Whole back" fill="#CCCCCC" stroke="#1b87f7" d="M81.3,73.6l-23.6,16c-5.6,3.6-10.9,7.6-16,11.9c-2.2,10.9-0.1,23.1,7.3,31.5c2,2.3,4.5,4.5,5.3,7.9c-0.6,9.3-2.2,18.6-4.8,27.6C50.5,175.8,52,183,54,190c0.9,6.7,2.1,13.3,3.7,19.9c1.3,12.7-2.3,25.4-2.1,38.2c-0.1,2.3,0.3,4.7,1.3,6.8l0.1,0.2v0.2c0,0,90.7,0.1,90.8,0c-0.1-1.8,1-3.3,1.4-5.1c0.2-1.1,0.2-2.1,0.1-3.2c0-1.4-0.1-2.8-0.2-4.8c-2-10-2.9-20.1-2.8-30.3c0.5-9.2,1.9-18.4,4.1-27.4c1.7-6.4,3.4-12.9,3.2-20c-1.2-6.9-2.4-13.7-3.1-20.6c-0.2-1.5-0.2-3,0-4.5c0.2-1.3,0.6-2.6,1.1-3.9c3.1-7.4,9.1-13.4,11.3-21c0.8-5.1,0.7-10.2-0.1-15.3c-6.6-3.2-12.2-8.1-18.5-11.9c-2.1-1.3-4.3-2.4-6.5-3.6c-5.9-3.3-11.6-7-16.9-11.1c-7.1,1.8-13.9,4.5-20.4,7.8c-5.3-3.3-11.3-5.8-17.6-7.3C82.8,73,82.4,73,82.2,73C81.9,73.1,81.6,73.3,81.3,73.6z"/>
	<path id="Neck back" title="Neck back" fill="#CCCCCC" stroke="#1b87f7" d="M83.9,46.4l0.2,7.5c0.2,6.2,0.2,12.8-2.6,18.5c6.8,1.7,13.4,4.3,19.6,7.8c6.5-3.3,13.2-6,20.1-8c-2.2-2.8-3.4-6.2-3.3-9.8c0.1-1.3,0.3-2.5,0.6-3.7c0.9-4.7,1.4-9.5,1.5-14.3c-8.6,9.3-22.6,11.1-33.3,4.4C85.6,48.2,84.7,47.4,83.9,46.4z"/>
	<path id="Head back" title="Head back" fill="#CCCCCC" stroke="#1b87f7" d="M87.2,11.2c-6.1,6.1-9.5,14.4-9.5,23c0,2,0.2,3.9,0.2,5.9c0,0.6,0,1.2-0.3,1.8c-0.2,0.6-0.8,0.9-1.4,0.9c-1.1-0.2-1.5-1.9-2.6-2.1c-0.6-0.1-1.3,0.3-1.5,0.8c-0.3,0.6-0.4,1.2-0.4,1.8c-0.1,2.8,0.3,5.7,1.2,8.4c0.6,2.7,1.4,5.2,2.4,7.7c0.1,0.4,0.4,0.7,0.6,1c0.9,0.8,2.2,0.7,3-0.1c0.9,0,1.6,0.5,2,1.3s0.6,1.6,0.6,2.4c0.2,2.5,0.2,5-0.1,7.4c2.9-5.1,2.8-11.3,2.7-17.2c-0.1-3-0.1-5.9-0.2-8.7c3,3.3,7,5.5,11.3,6.2c4.5,0.7,9.1,0.5,13.5-0.5c2.2-0.8,4.4-1.8,6.4-3s3.8-2.8,5.2-4.7c0.3,5.9-0.8,11.8-1.7,17.7c-0.2,1-0.3,2-0.3,3c0.2,3,1.4,5.9,3.5,8.1c0.6-3.4,1-6.9,1.5-10.5c0.3,0.4,0.8,0.4,1.2,0.2c0.4-0.3,0.7-0.6,0.9-1c3.5-5.5,5.9-11.9,5.8-18.4c0-0.4,0-0.9-0.2-1.3c-0.2-0.4-0.5-0.8-1-0.8s-1.1,0.2-1.5,0.5c-0.7,0.5-1.5,0.8-2.4,1c-0.4,0.1-1.1,0-1.2-0.6c0.1-7.3,0.1-14.9-3-22C119,13,113.3,8.3,106.5,6.9C99.8,5.6,91.8,6.5,87.2,11.2z"/>
	<path id="Shoulder" title="Shoulder" fill="#CCCCCC" stroke="#1b87f7" d="M41.2,101.2c-1.2,7.4-1.2,15.2,1.6,22.2c2.5,6.1,6.9,11.2,11.4,16.5c-0.8,9.5-2.6,18.8-5.2,28c-2,9.5-5.5,18.6-10.1,27.1c-9.6,0.7-19.2-2-27.1-7.4c1.9-6.7,0.5-13.9,1.2-20.8c0.6-5.5,2.3-10.9,5.1-15.8c-0.3-2.6-0.6-5.1-1-7.7c-0.5-3.2-0.7-6.3-0.8-9.5c0.1-7.3,2.3-14.3,6.4-20.3c1.6-2.4,3.7-4.6,6-6.3c1.7-1.2,3.5-2.2,5.5-3C36.5,103.1,38.8,102.1,41.2,101.2z"/>
	<path id="Elbow" title="Elbow" fill="#CCCCCC" stroke="#1b87f7" d="M12,188.3c-1,4.3-2.2,8.4-3.8,12.5c1.4,3.6,3.7,6.8,6.5,9.4c2.9,2.6,6.7,4.2,10.6,4.4c5-0.1,9.7-2.2,13.2-5.8v-11.4c0-0.7,0-1.4,0.2-2.1C29.2,196,19.9,193.6,12,188.3z"/>
	<path id="Forearm, hand, fingers" title="Forearm, hand, fingers" fill="#CCCCCC" stroke="#1b87f7" d="M7.8,202.3c-2,6.3-3.9,12.6-4.6,19.1c-0.3,3.9-0.4,7.8-0.2,11.7c0.4,12.9,1.5,25.7,3.1,38.3c-0.2,5-0.9,10-2.2,14.8c-0.4,1.2-0.6,2.4-0.7,3.7c0.1,1.7,0.4,3.4,0.9,5c0.8,4,0,8.2-0.8,12.2c-1.4,8-2,17,2.5,23.5l4,4.2c0.7,0.8,1.5,1.5,2.2,2.2c1.1,0.8,2.2,1.5,3.4,2.2l7.6,4.3c0.8,0.5,1.8,0.9,2.8,1.1c0.8,0,1.6,0.1,2.4,0.3c0.4,0.2,0.7,0.4,1,0.7c0.6,0.4,1.3,0.7,2,0.6s1.3-0.5,1.5-1.2c0.1-0.6-0.1-1.3-0.5-1.8c-0.7-0.9-1.4-1.8-2.3-2.6l-0.7-0.6c-1-1-2.2-1.9-3.4-2.6c-1.1-2.3-2.9-4.2-5.2-5.3c0.2-1.4,0.1-2.8-0.3-4.1c-0.4-1.4-1-2.7-1.7-3.9c2-2.2,2.8-5.2,2.2-8.2c0.9,1.8,1.5,3.8,1.8,5.8c0,0.7,0.2,1.3,0.5,1.9c0.2,0.3,0.5,0.6,0.7,0.9c0.2,0.5,0.3,1.1,0.2,1.6c0,2.4,1.1,4.6,2.9,6.2c1,0.9,2.3,1.4,3.6,1.3c0.2,0,0.4-0.1,0.5-0.3c0.1-0.2,0.1-0.3,0-0.5c-0.5-4.8-1-9.6-1.5-14.3c-0.1-1.7-0.4-3.5-0.9-5.2c-1-3.1-3-5.8-4.6-8.6c-1.4-2.6-2.6-5.2-3.5-8c-2.1-4.3-1.3-9.3-0.3-13.9c0.4-2,0.9-4.1,1.3-5.9c2.3-10.4,5-20.7,8.3-30.8c3.8-11.7,8.6-23.4,8.3-35.9c0-0.1-0.1-0.3-0.3-0.3c-4.3,4.5-11.3,5.9-17.5,4.1c-3-0.8-5.6-2.6-7.5-5.1s-3.4-5.2-4.6-8C8,201.2,8,201.7,7.8,202.3z"/>
	<path id="Shoulder" title="head" fill="#CCCCCC" stroke="#1b87f7" d="M163.9,99.9c0.3,6.3,0.6,12.8-1.7,18.6s-7.2,10.7-9.5,16.7c-1.5,4.3-2,8.9-1.4,13.4c0.5,4.5,1.6,8.9,2.4,13.8c1.5,11.1,5.8,21.7,12.3,30.8c9.2,0.1,18.4-2.2,26.5-6.6l-1.5-17.5c-0.2-2.5-0.5-5-1-7.5c-0.9-4.3-2.8-8.3-4.4-12.9c0.4-5.9,1.2-11.8,1.1-17.7c-0.1-5.9-1.1-12-4.1-17.1c-1.3-2.2-2.9-4.3-4.6-6.2c-1.1-1.4-2.4-2.6-3.8-3.6c-1.6-1-3.3-1.8-5.1-2.4C167.4,101.1,165.8,100.5,163.9,99.9z"/>
	<path id="Elbow" title="Elbow" fill="#CCCCCC" stroke="#1b87f7" d="M165.9,193.2c-0.5,4.9-0.4,9.9,0.2,14.8c5.3,3.3,11.5,4.7,17.8,4.2c6.2-0.7,11.6-4.7,14.1-10.4c-0.1-2.4-1.7-4.5-2.8-6.7c-1.1-2.7-2.1-5.5-2.7-8.4C184.2,191.4,174.9,192.6,165.9,193.2z"/>
	<path id="Forearm, hand, fingers" title="Forearm, hand, fingers" fill="#CCCCCC" stroke="#1b87f7" d="M165.9,208.2c3.1,15.5,7.9,30.6,14.3,45c4.2,12.1,7.7,24.5,10.5,37c-2,5.5-4.2,10.8-6.6,16.1c-1.1,2.1-2,4.4-2.6,6.7c-0.9,3.9-0.2,8-1.4,11.8c-0.4,1.1-0.7,2.2-0.9,3.3c-0.2,1.2,0.4,2.3,1.4,2.9c1.4,0.6,3-0.5,3.9-1.9c2.6-4.1,1.8-10,5.4-13.2c0,1.4,0.4,2.8,1.1,4c0.8,0.8,0.9,2.2,0,3.1l-0.1,0.1c-0.8,1.6-1.3,3.3-1.3,5.1c-1.8,1.2-2.4,3.5-3.9,4.9c-0.6,0.5-1.2,1-1.8,1.4c-2.2,1.5-4.2,3.2-5.9,5.2c-0.6,0.6-1,1.3-1.1,2.1c-0.1,1.4,1.4,2.4,2.8,2.4c1.4-0.2,2.7-0.7,3.8-1.5l8.5-5.4c2.8-1.6,5.4-3.6,7.8-5.8c2.3-2.1,3.9-4.7,4.7-7.7c1.6-4.9,3.3-9.9,2.7-15c-0.3-2.5-1.2-5-1.8-7.5c-0.8-3.7-0.8-7.4-0.2-11.1c0.9-3.3,0-6.9-0.7-10.3c-0.5-2.6-0.8-5.2-1-7.9c-0.6-7.8-0.7-15.5-0.4-23.3c0.5-15.7,0.9-32-5-46.5c-2.1,4.6-6.3,8-11.3,9.2C179.6,213.3,172.1,212,165.9,208.2z"/>
	<path id="Buttock" title="Buttock" fill="#CCCCCC" stroke="#1b87f7" d="M56.8,255.6c-2.8,5-3.5,10.9-4.1,16.6c-0.9,7.9-1.3,15.8-1.2,23.7c3.2,8.8,9.8,16.1,18.3,20.1c5.4,2.7,11.6,3.6,17.5,2.5c6-1.2,11.2-4.6,14.7-9.6c4.1,4.5,9.5,7.7,15.4,9c6.1,1.3,12.4,0.8,18.2-1.5c8.1-4.9,14.2-12.5,17.2-21.5c-0.4-6.7-0.8-13.3-1.2-20c-0.1-2.4-0.3-4.8-0.8-7.2c-0.8-4.2-2.6-8.3-3-12.6L56.8,255.6z"/>
	<path id="Thigh back" title="Thigh back" fill="#CCCCCC" stroke="#1b87f7" d="M102.9,312.2c3.2,16.6,4.7,33.6,6.6,50.4c2.4,21.1,5.5,42.1,9.4,63.5c1.1,4.9,1.9,10,2.4,15c2.4-3.7,3.2-8.1,4.2-12.4s2.4-8.7,5.6-11.8c1.5-1.6,3.8-2.5,6-2.2c2.1,0.2,4,1.3,5.1,3c2.5,3.2,3.8,7.1,5.2,10.9s3.2,7.6,6.4,10c0.2-5.5-0.7-10.9-0.9-16.4c0-5.6,0.4-11.1,1.2-16.7c1.1-9.1,2.3-18.1,3.5-27.8c0.8-13.6,0.9-27.2,0.2-40.8c0.4-13.5-3.5-26.7-4.6-40.2c-2.5,7.3-7.2,13.7-13.5,18.3c-8.1,5.3-18.3,6.2-27.2,2.5c-1.1-0.5-2.2-1-3.2-1.6c-2.4-1.6-4.7-3.5-6.7-5.6C102.9,311,102.8,311.8,102.9,312.2z"/>
	<path id="Shin back" title="Shin back" fill="#CCCCCC" stroke="#1b87f7" d="M134.1,415.4c-3.6,1.8-5.5,5.8-6.6,9.7s-1.5,8-3.2,11.6c-0.7,1.4-1.4,2.8-1.9,4.2c-0.3,1.2-0.5,2.4-0.6,3.6c-0.6,5.5-1.1,11-1.7,16.5c-0.5,4.4-0.8,8.8-0.8,13.2c0.4,15.2,7.4,29.4,10.1,45.2c0.5,10.7,1,21.4-0.6,31.9c-0.7,3.5-1.1,7-1.2,10.6c0,4.2,1.1,8.3,0.6,12.4c-0.5,4.3-2.6,8.5-2,12.6c0.3,4.9,5.3,8.5,10.1,9s9.7-1.3,14.2-3.1c3.7-1.5,7.4-3,10.4-5.6c2.4-2.1,4.2-4.8,7.1-6.1c0.9-0.2,1.7-0.7,2.4-1.2c0.9-1,1.1-2.5,0.4-3.7c-0.6-1.2-1.5-2.2-2.6-3c-2.4-2-5-3.8-7.6-5.5c-2.6-1.6-5.5-3.3-6.6-6.1c-3-25.8,1.5-51.8,5.4-76.7c2.3-15-1.7-30.1-5.9-44.8c-2.9-2.1-4.7-5.5-6-8.8s-2.2-6.9-3.8-10.1c-1.2-2.5-2.9-4.8-5.4-6C137.1,414.6,135.4,414.7,134.1,415.4z"/>
	<path id="Thigh back" title="Thigh back" fill="#CCCCCC" stroke="#1b87f7" d="M51.8,298.4c-0.7,5.7-1.5,11.3-2.2,17c-1.5,11.6-3.1,23.3-3.5,35c-0.7,17.9,1,36.1,7.7,52.5c0.4,11.5,0.7,22.9,1.1,34.5c0.8-7.4,3.7-14.4,8.5-20.2c1.5-2,3.5-3.6,5.8-4.5c2.4-0.9,5.2-0.3,6.9,1.6c3.1,3,4.6,7.3,5.9,11.4c1.8,5.6,3.6,11.3,5.8,16.5c1.2-16.1,2.7-32.2,5-47.9c1.3-14.2,2.5-28.5,3.3-42.6c1.6-13.8,3.1-27.7,6-40.8c-1.6,1.6-3.2,2.8-4.7,4.4c-0.7,0.7-1.6,1.4-2.5,1.8c-1,0.6-2,1.2-3,1.6c-1.3,0.4-6.9,1.6-8.4,1.5c-6.8-0.6-13.3-2.8-19.1-6.4C58.5,310.1,54.2,304.7,51.8,298.4z"/>
	<path id="Shin back" title="Shin back" fill="#CCCCCC" stroke="#1b87f7" d="M66.7,414.4c-4.9,4.6-8,10.7-9.9,17.1s-2.7,13-3.7,19.8c-4.1,21.4-3.6,43.5,1.5,64.7c1.9,12.8,2.6,25.8,2,38.7c-0.1,2.1-0.2,4.2-1.7,6.1c-1,1.6-2.6,2.9-4.4,3.5c-1.8,0.6-3.6,1.4-5.2,2.3c-0.8,0.6-1.6,1.3-2.3,2.1l-3.7,3.8c-0.7,0.7-1.3,1.4-2.7,2.6c3.2,4,7,7.4,11.2,10.2c1.9,1.4,4,2.3,6.3,2.7c0.7,0,1.5,0.1,2.2,0.2c0.8,0.3,1.6,0.6,2.3,1.1c4.1,2.5,8.7,4.5,13.5,4.7s9.9-2,12.3-6.1c0.7-1.1,1-2.3,1.1-3.5c-0.1-1.4-0.5-2.9-1.1-4.2c-1.2-2.6-1.9-5.4-2.3-8.3c-0.3-2.9,0.1-5.8-0.1-8.7c-0.2-2.5-0.6-5-1.1-7.5c-3.2-17.7-2.1-35.8,3.2-53c7.6-18.3,8.6-38.7,2.8-57.6c-2.4-7.9-4.9-15.7-7.6-23.4c-0.6-2.1-1.5-4.1-2.8-5.9s-3.3-3-5.6-3.1C69.6,412.8,67.9,413.4,66.7,414.4z"/>
</g>
</svg>
