<?xml version="1.0" encoding="utf-8"?>
<svg version="1.1" xmlns="http://www.w3.org/2000/svg" width="288px" height="672px" x="0px" y="0px" xml:space="preserve">
<g>
	<path id="frt_1" title="head" fill="#CCCCCC" stroke="#1b87f7" d="M134.03,15.71c-6.64,2.87-10.91,9.7-12.54,16.75c-1.63,7.05-1.03,14.4-0.43,21.62c-0.66-0.6-1.07-1.44-1.67-2.1c-0.6-0.67-1.56-1.17-2.38-0.81c-0.85,0.38-1.1,1.45-1.19,2.38c-0.49,5.22,0.66,10.58,3.24,15.14c0.37,0.66,0.81,1.33,1.49,1.66c0.68,0.33,1.66,0.14,1.94-0.56c0.58,2.65,1.27,5.5,3.32,7.28c0.78,0.68,1.47,1.41,2.29,2.06c1.37,1.08,2.63,2.35,4.12,3.26c1.6,0.98,19.6,3.92,29.3-3.17c0.96-0.7,1.93-1.42,2.6-2.39c1.22-1.75,1.44-3.99,1.63-6.12c-0.18-0.1-0.06,0.29,0.15,0.3c1.42,0.11,2.8-0.68,3.72-1.76s1.45-2.45,1.87-3.81c1.1-3.56,1.58-7.3,1.41-11.02c-0.04-0.84-0.15-1.75-0.75-2.33c-0.72-0.68-1.91-0.62-2.76-0.11c-0.85,0.51-1.43,1.36-1.95,2.2c0.73-6.05,0.72-12.19-0.03-18.24c-0.36-2.89-0.89-5.78-1.95-8.49c-2.4-6.09-7.58-11.03-13.79-13.11S138.7,13.69,134.03,15.71z"/>
	<path id="frt_2" title="head" fill="#CCCCCC" stroke="#1b87f7" d="M125.83,77.08c1.54,3.39,1.52,8.4,1.79,12.01c0.36,4.84,0.16,9.95-2.27,14.16c-2.31,4-6.33,6.67-10.14,9.37c0.01-0.02,0.01-0.04,0.14,0.01c8.69,0.02,17.37,0.05,26.06,0.07c2,0.01,4,0.01,6,0.02c7.13,0.02,14.25,0.04,21.37-0.27c1.88-0.08,3.78-0.19,5.64,0.11c-2.82-0.83-5.09-2.87-7.25-4.86c-1.24-1.14-2.5-2.3-3.36-3.74c-1.17-1.97-1.53-4.3-1.79-6.58c-0.69-6.15-0.44-13.56,1.11-19.4c-2.56,2.06-6.35,3.8-9.53,4.65c-5.56,1.49-11.02,1.8-16.74,1.18c-1.6-0.17-3.13-0.83-4.64-1.4C129.95,81.53,127.83,79.03,125.83,77.08z"/>
	<path id="frt_3" title="head" fill="#CCCCCC" stroke="#1b87f7" d="M111.18,114.21c-3.64,9.19-7.27,18.38-10.91,27.58c-0.45,1.13-0.9,2.29-0.89,3.5c0.01,1.13,0.68,2.19,0.68,3.32c0,7.75-2.34,11.88-2.86,17.11c-0.76,7.61-0.41,11.71,0.16,13.07c5.68,13.49,5.3,28.57,9.72,43.96c3.98-6.28,7.28-12.97,11.53-19.07c4.25-6.1,9.61-11.69,16.44-14.62c6.83-2.93,15.32-2.74,21.16,1.85c2.28,1.8,4.06,4.15,5.77,6.5c7.37,10.11,14.13,20.68,20.21,31.62c-2.02-4.79-0.14-10.21,1.35-15.18c1.72-5.76,2.91-11.66,4.09-17.55c0.54-2.7,1.08-5.4,1.32-8.14c0.24-2.85,0.83-5.71,0.74-8.57c-0.13-4.18,0.22-8.87,0.09-13.05c-0.16-4.89-1.13-10.48-2.71-15.11c-1.03-3.02-2.45-5.25-2.86-8.41c-0.41-3.16,1.47-5.97,4.58-6.72c-2.66-6.62-5.98-14.16-8.64-20.78c-0.27-0.66-0.77-0.85-1.22-1.4c-0.55-0.67-1.57-1.12-2.13-1.62c0.28-0.09-0.15,0.28-0.45,0.23c-4.03-0.73-7.26-0.41-11.13-0.25c-8.92,0.37-17.99,0.67-26.91,0.22c-4.85-0.24-0.67,0.56-11.05,0.03c-4.07-0.21-7.02,0.26-9.4,0C114.98,112.42,113.46,112.67,111.18,114.21z"/>
	<path id="frt_4" title="head" fill="#CCCCCC" stroke="#1b87f7" d="M111.37,113.33c-8.56,0.16-19.48,1.46-25.36,7.69c-3.37,3.57-5.09,8.44-5.69,13.3c-0.61,4.87-0.18,9.8,0.23,14.69c0.65,7.72,1.27,15.48,0.58,23.19c-0.89,10.01-3.98,19.8-4.03,29.85c-0.02,2.93,0.24,5.92,1.45,8.59c1.21,2.66,3.51,4.97,6.38,5.55c3.26,0.66,6.66-1.02,8.87-3.52c2.2-2.5,3.41-5.71,4.41-8.89c1.76-5.6,3.03-11.6,1.69-17.32c-0.74-3.17-2.26-6.12-2.99-9.3c-2.51-10.86,4.44-22.06,2.72-33.07c-0.18-1.14,0.34-1.35,1.56-4.62c1.31-3.5,0.94-2.45,1.86-4.71C106.4,126.62,108.67,120.71,111.37,113.33z"/>
	<path id="frt_5" title="head" fill="#CCCCCC" stroke="#1b87f7" d="M179.76,114.58c2.88,7.29,5.89,14.53,9.01,21.72c-2.82,0.11-4.68,3.24-4.62,6.06c0.06,2.82,1.45,5.41,2.5,8.02c4.53,11.28,2.98,23.93,2.86,36.09c-0.02,2.36,0.01,4.74,0.39,7.07c0.37,2.24,1.05,4.42,1.6,6.62c0.83,3.31,1.39,6.76,3.17,9.67c1.78,2.91,5.21,5.16,8.51,4.32c1.88-0.47,3.41-1.86,4.57-3.41c3.83-5.11,4.25-12.04,3.31-18.35c-0.94-6.31-3.08-12.41-3.84-18.75c-1.11-9.26,0.77-18.59,1.23-27.91c0.46-9.32-0.79-19.39-6.99-26.36c-1.05-1.17-2.26-2.26-3.74-2.78c-1.57-0.54-3.28-0.4-4.93-0.56C187.91,115.57,182.89,112.41,179.76,114.58z"/>
	<path id="frt_6" title="head" fill="#CCCCCC" stroke="#1b87f7" d="M75.62,200.84c-9.52,22-9.28,47.94-14.65,71.3c-0.66,2.86-1.41,5.7-1.99,8.57c-1.41,6.96-1.84,14.07-2.26,21.15c-0.23,3.77-0.44,7.61,0.52,11.26c1.02,3.83,3.3,7.24,4.41,10.95c0.74,1.07,1.41,2.04,2.14,3.11c5.71,4.06,11.85,7.53,18.27,10.33c0.73-1.93-0.16-4.15-1.54-5.68c-1.39-1.53-3.21-2.57-4.86-3.81c-3.77-2.85-6.64-6.89-8.09-11.39c2.11-2.71,2.81-6.47,1.8-9.76c2.92,2.31,3.53,6.4,4.27,10.06s2.34,7.76,5.91,8.82c-0.94-8.91-2.64-17.73-5.08-26.35c-0.49-1.74-1.05-3.54-2.26-4.89c-1.8-2.02-5.18-3.58-4.5-6.2c3.72-13.33,9.78-25.87,15.94-38.26c6.23-12.54,12.76-25.73,12.13-39.72c-2.78,4.03-6.52,7.11-11.74,6.01c-1.96-0.41-3.26-2.41-4.52-3.96C76.58,208.77,78.01,196.06,75.62,200.84z"/>
	<path id="frt_7" title="head" fill="#CCCCCC" stroke="#1b87f7" d="M193.4,209.18c-0.11,11.58,4.27,25.11,8.58,35.85s9.39,21.23,12.42,32.4c1.51,5.56,2.46,11.7,0.03,16.93c-0.7,1.5-1.65,2.87-2.48,4.3c-4.07,6.94-5.35,15.11-6.57,23.06c-0.19,1.22-0.31,2.66,0.58,3.52c1.22,1.18,3.42,0.21,4.16-1.32c0.74-1.53,0.55-3.31,0.6-5.01c0.12-3.82,1.62-7.58,4.17-10.42c-0.84,2.39,0,5.28,2,6.84c-0.83,2.66-1.36,5.42-1.58,8.21c-3.13,2.98-6.27,5.96-9.4,8.94c-0.88,0.83-1.8,1.74-2.02,2.93s0.65,2.64,1.85,2.51c0.4-0.04,0.76-0.25,1.11-0.45c4.93-2.85,9.87-5.71,14.8-8.56c0.72-0.42,1.45-0.84,2-1.47c0.66-0.75,0.99-1.72,1.31-2.66c1.09-3.22,2.18-6.44,3.26-9.67c0.42-1.25,0.85-2.52,0.91-3.83c0.06-1.33-0.25-2.65-0.47-3.96c-1.03-6.04-0.19-12.24-0.7-18.34c-0.4-4.8-1.64-9.48-2.58-14.2c-1.02-5.09-1.7-10.26-2.04-15.44c-0.33-5.07-0.33-10.15-0.76-15.21c-0.35-4.17-0.98-8.31-1.61-12.44c-1.75-11.44-3.59-23.15-9.18-33.27c-0.86,7.56-2.24,12.92-8.61,15.73c-0.7,0.31-3.33-0.27-4.09-0.4C194.84,213,194.3,209.34,193.4,209.18z"/>
	<path id="frt_8" title="head" fill="#CCCCCC" stroke="#1b87f7" d="M129.08,193.46c-2.76-1.03-13.11,11.83-20.38,26.63c-1.06,2.15-1.63,3.06-1.63,7.91c7.57-0.1,15.73,0.56,22.81-0.37C129.88,215.4,130.41,189.53,129.08,193.46z"/>
	<path id="frt_9" title="head" fill="#CCCCCC" stroke="#1b87f7" d="M130.13,192.4c-0.35,11.47-0.34,22.95,0.03,34.43c0.01,0.28,0.65,0.9,1,0.9c8.96,0,16.04-0.1,24-0.1c0.39,0,0.8-0.15,1.1-0.4c0.43-0.36,0.4-1.01,0.42-1.57c0.31-9.6-0.08-21.18,0.61-30.75c0.11-1.55,0.45-0.44-0.21-1.85c-0.32-0.69-1.75-2.93-2.45-3.22c-4.91-2.05-7.83-3.21-12.29-2.62C137.89,187.81,132.7,190.07,130.13,192.4z"/>
	<path id="frt_10" title="head" fill="#CCCCCC" stroke="#1b87f7" d="M157.3,194.07c-0.15,11.09-0.22,22.18-0.22,33.27c7.16,0.36,10.23,0.29,15.43,0.29c6.39,0,6.34-0.69,8.09-0.3c0.38,0.08,0.66-0.33,0.44-0.64c-3.84-5.53-7.32-11.59-10.41-16.74C166.86,203.67,156.08,187.49,157.3,194.07z"/>
	<path id="frt_11" title="head" fill="#CCCCCC" stroke="#1b87f7" d="M179.6,227.63c-24.18,0.12-48.36,0.24-72.53,0.37c-2.94,5.21-5.65,10.54-8.12,15.98c-1.51,3.31-2.82,7.52-0.48,10.3c1.9,2.25,5.27,2.36,8.22,2.3c27.01-0.55,54.02-0.32,81.03-0.08c1.24-1.74,2.48-3.49,3.71-5.23c0.41-0.57,0.83-1.18,0.91-1.88c0.1-0.82-0.27-1.61-0.64-2.34C188.49,240.6,184.87,234.34,179.6,227.63z"/>
	<path id="frt_12" title="head" fill="#CCCCCC" stroke="#1b87f7" d="M97.19,252.7c0.52,6.03,8.69,12.94,12.01,18.33c2.26,3.67,4.55,6.83,7.28,10.51c4.31,5.82,8.46,13.98,13.41,19.27c-0.78-13.98-1.19-30.24-0.87-44.23c-2.1,0.12-6.37-0.22-8.47-0.23c-5.75-0.04-10.51,0.23-16.26,0.19C102.57,256.54,98.13,252.72,97.19,252.7z"/>
	<path id="frt_13" title="head" fill="#CCCCCC" stroke="#1b87f7" d="M129.01,256.58c0.16,14.49,0.44,30.24,0.97,44.73c8.74,0.83,18.7,0.11,27.88,0.08c-1.54-14.46,0.55-30.59,0-45.12C148.46,255.94,138.34,256.15,129.01,256.58z"/>
	<path id="frt_14" title="head" fill="#CCCCCC" stroke="#1b87f7" d="M187.72,256.5c-6.6,12.02-14.59,26.61-22.29,39.44c-0.71,1.18-2.58,2.95-3.63,3.84c-1.06,0.89-2.61,2-3.93,1.62c0-14.43,0.1-30.38,0.1-44.81C168.9,256.58,178.36,256.15,187.72,256.5z"/>
	<path id="frt_15" title="head" fill="#CCCCCC" stroke="#1b87f7" d="M95.28,252.7c-2.07,5.75-3.02,11.83-3.95,17.87c-3.76,24.27-7.53,48.83-5.35,73.29c2.18,24.5,10.28,48.3,11.01,72.89c0.17,5.72-0.04,11.59,1.91,16.97c1.68-2.26,2.74-7.3,5.91-9.99c3.17-2.69,6.75-3.38,10.25-1.14c4.8,3.06,5.42,6.73,6.16,11.78c0.82,5.59,2.76,11.4,3.58,17c6.64-21.03,7.28-43.4,8.89-65.4c1.3-17.72,3.26-35.38,5.22-53.04c0.65-5.82,1.36-11.85,4.42-16.85c-5.69-0.82-9.28-6.35-12.21-11.3C120.3,286.52,108.39,268.92,95.28,252.7z"/>
	<path id="frt_16" title="head" fill="#CCCCCC" stroke="#1b87f7" d="M104.79,423.73c-4.34,3.43-5.18,9.76-4.31,15.23c0.35,2.18,0.98,4.45,2.57,5.97c1.4,1.33,3.34,1.9,5.24,2.28c1.54,0.31,3.13,0.51,4.67,0.2c2.35-0.48,4.36-2.15,5.6-4.2s1.79-4.46,1.99-6.86c0.27-3.24-0.1-6.61-1.61-9.49c-1.51-2.88-4.3-5.19-7.52-5.63C108.2,420.8,104.66,422.55,104.79,423.73z"/>
	<path id="frt_17" title="head" fill="#CCCCCC" stroke="#1b87f7" d="M98.33,434.36c2.8,7.31-2.8,22.95-4.92,33.23c-3.32,16.06-0.61,32.66,1.16,48.97c1.09,10.09,1.81,20.23,2.15,30.37c0.68,19.81-0.45,40.91-11.66,57.27c-1.11,1.62-2.33,3.2-3.09,5.02c-1.73,4.09-1.72,10.82,2.22,12.41c0.02,0.01,0.05,1.51,0.06,1.49l0.94-4.83c-0.92,1.7,0.73,4.13,2.65,3.91c0.02,0,0.03-0.01,0.03-0.03l0.57-2.98c-0.44,1.64,0.24,3.64,1.81,4.28c1.57,0.64,3.69-0.78,3.36-2.44c-0.16,1.39,0.85,2.82,2.22,3.13c1.35,0.31,2.87-0.51,3.35-1.81c0.01-0.02,0.03-0.03,0.04-0.01c2.73,1.98,6.8,1.86,9.41-0.28c1.29-1.06,2.2-2.5,2.98-3.97c2.07-3.89,3.41-8.42,2.39-12.7c-0.18-0.74-0.42-1.53-0.19-2.26c0.3-0.91,1.25-1.41,1.95-2.07c3.07-2.84,1.28-7.84,1.4-12.03c0.08-2.99,1.28-5.83,1.83-8.77c1.02-5.39-0.11-10.91-0.93-16.33c-2.43-16.07-2.13-32.56,0.89-48.53c1.11-5.87,2.58-11.66,3.7-17.52c4.19-21.88,3.46-44.68-2.13-66.25c-0.01-0.04-0.07-0.03-0.07,0.01c0.45,4.46,0.73,9.96-2.22,13.28c-2.46,2.77-5.78,3.09-7.89,3.05c-1.32-0.03-2.61-0.42-3.76-1.08c-1.4-0.8-3.3-1.84-3.97-2.42C98.88,441.22,101.1,429.57,98.33,434.36z"/>
	<path id="frt_18" title="head" fill="#CCCCCC" stroke="#1b87f7" d="M144.45,315.9c2.17,5.15,2.68,10.83,3.16,16.4c2.95,33.89,5.9,67.78,8.85,101.66c0.43,4.9,1.35,10.14,4.85,13.6c1.21-9.74,7.83-22.32,9.12-23.06c2.74-1.56,5.44-3.95,8.5-3.16c2.57,0.66,4.34,2.97,5.66,5.27c2.34,4.09,2.27,11.28,3.25,14.15c0.01,0.02,0.04,0.01,0.04-0.02c-1.83-14.15,2.22-29.21,4.74-43.26c2.04-11.41,3.97-22.84,5.77-34.28c4.24-26.99,7.78-54.81,1.63-81.44c-0.84-3.62-1.85-7.21-2.29-10.9c-0.84-7.11-0.11-15.7-5.92-19.88c-6.98,12-13.96,23.99-20.95,35.99C164.24,298.34,157.07,310.25,144.45,315.9z"/>
	<path id="frt_19" title="head" fill="#CCCCCC" stroke="#1b87f7" d="M166.22,429.68c-1.03,5.32,2.1,14.7,3.95,15.59c0.72,0.35,3.68,4.04,6.28,4.01c1.6-0.02,3.1-0.75,4.47-1.57c1.17-0.7,2.33-1.51,3.06-2.66c0.83-1.3,2.25-6.88,2.42-8.41c0.36-3.23-0.85-1.56,0.12-4.66c0.87-2.77-6.86-13.12-10.88-10.58c-1.76,1.11-2.53,1.2-4.29,2.31C169.6,424.83,167.2,428.61,166.22,429.68z"/>
	<path id="frt_20" title="head" fill="#CCCCCC" stroke="#1b87f7" d="M166.22,429.68c-5.52,14.97-6.53,31.16-7.49,47.08c-0.45,7.53-0.9,15.19,0.95,22.5c1,3.98,2.67,7.76,3.84,11.69c2,6.67,2.58,13.68,3.07,20.63c0.62,8.86,1.1,17.72,1.44,26.6c0.32,8.35,0.48,16.95-2.48,24.77c2.03,2.31,1.92,5.78,1.28,8.79c-0.64,3.01-1.68,6.06-1.12,9.08c0.56,3.02,3.57,5.88,6.48,4.9c-1.89,5.24,1.12,10.87,4.11,15.57c1.34,2.11,2.9,4.36,5.3,5.06c2.4,0.7,5.56-1.32,4.9-3.73c0.6,1.77,1.47,3.7,3.22,4.34c1.75,0.64,4.13-1.31,3.12-2.88c-0.5,1.51,0.58,3.33,2.15,3.62s3.22-1.03,3.29-2.61c-0.14,1.21,1.15,2.35,2.33,2.07s1.82-1.88,1.15-2.9c-0.01,0.74,1.14,0.97,1.67,0.47c0.54-0.51,0.59-1.33,0.62-2.07c0.14-4.68,0.24-9.54-1.68-13.82c-2.22-4.96-6.85-8.41-9.69-13.04c-3.32-5.41-3.97-12-4.54-18.32c-0.56-6.24-1.12-12.48-1.2-18.74c-0.16-12.84,1.7-25.61,2.86-38.39c2.66-29.43,1.55-59.2-3.29-88.35c0,3.56-0.02,7.21-1.26,10.55c-1.24,3.34-3.99,6.36-7.51,6.88c-4.5,0.67-8.75-2.97-10.34-7.24S166.24,433.2,166.22,429.68z"/>
	<path id="frt_21" title="head" fill="#CCCCCC" stroke="#1b87f7" d="M130.91,301.85c-1.25,1.66,6.04,13.09,10.89,13.86c0.93,0.15,0.55,0.4,1.5,0.35c0.78-0.04,2.51-0.85,3.23-1.18c5.83-2.7,19.73-17.58,12.97-13.46c-9.29-0.25-25.51,1.51-27.51,0.04C131.64,301.32,130.93,301.53,130.91,301.85z"/>
</g>
</svg>
